<svg id="svg" version="1.1" xmlns="http://www.w3.org/2000/svg" xmlns:xlink="http://www.w3.org/1999/xlink" width="400" height="400" viewBox="0, 0, 400,400"><g id="svgg"><path id="path0" d="M11.856 10.678 C 11.321 11.213,11.565 390.000,12.100 390.000 C 12.375 390.000,22.873 384.870,35.430 378.600 C 47.986 372.330,58.385 367.200,58.538 367.200 C 58.691 367.200,59.529 366.750,60.400 366.200 C 61.271 365.650,62.243 365.200,62.559 365.200 C 62.875 365.200,63.193 365.065,63.267 364.900 C 63.412 364.573,67.625 362.400,68.114 362.400 C 68.280 362.400,69.129 361.950,70.000 361.400 C 70.871 360.850,71.843 360.400,72.159 360.400 C 72.475 360.400,72.793 360.265,72.867 360.100 C 73.012 359.773,77.225 357.600,77.714 357.600 C 77.880 357.600,78.729 357.150,79.600 356.600 C 80.471 356.050,81.443 355.600,81.759 355.600 C 82.075 355.600,82.393 355.465,82.467 355.300 C 82.612 354.973,86.825 352.800,87.314 352.800 C 87.480 352.800,88.329 352.350,89.200 351.800 C 90.071 351.250,91.043 350.800,91.359 350.800 C 91.675 350.800,91.993 350.665,92.067 350.500 C 92.140 350.335,93.235 349.705,94.500 349.100 C 95.765 348.495,97.835 347.505,99.100 346.900 C 100.365 346.295,101.460 345.665,101.533 345.500 C 101.607 345.335,101.925 345.200,102.241 345.200 C 102.557 345.200,103.529 344.750,104.400 344.200 C 105.271 343.650,106.120 343.200,106.286 343.200 C 106.775 343.200,110.988 341.027,111.133 340.700 C 111.207 340.535,111.451 340.400,111.676 340.400 C 111.902 340.400,151.892 320.529,200.543 296.243 C 249.194 271.956,312.175 240.527,340.500 226.400 C 368.825 212.273,391.990 200.509,391.978 200.257 C 391.959 199.864,342.226 174.800,341.464 174.800 C 341.310 174.800,340.471 174.350,339.600 173.800 C 338.729 173.250,337.757 172.800,337.441 172.800 C 337.125 172.800,336.807 172.665,336.733 172.500 C 336.660 172.335,335.520 171.688,334.200 171.063 C 332.880 170.438,331.440 169.732,331.000 169.495 C 330.560 169.257,328.400 168.180,326.200 167.101 C 324.000 166.022,321.840 164.942,321.400 164.701 C 320.960 164.460,318.800 163.379,316.600 162.299 C 314.400 161.219,312.060 160.048,311.400 159.697 C 310.740 159.346,309.930 158.931,309.600 158.775 C 305.464 156.820,304.179 156.153,304.067 155.900 C 303.993 155.735,303.675 155.600,303.359 155.600 C 303.043 155.600,302.071 155.150,301.200 154.600 C 300.329 154.050,299.439 153.600,299.222 153.600 C 299.006 153.600,297.967 153.121,296.914 152.536 C 295.861 151.951,294.730 151.346,294.400 151.193 C 294.070 151.040,293.170 150.587,292.400 150.187 C 291.630 149.786,290.730 149.324,290.400 149.160 C 239.727 123.930,133.619 71.061,133.164 70.816 C 132.814 70.627,130.654 69.542,128.364 68.403 C 126.074 67.265,123.914 66.185,123.564 66.003 C 121.831 65.103,114.336 61.376,112.400 60.451 C 111.190 59.873,110.140 59.265,110.067 59.100 C 109.993 58.935,109.736 58.800,109.495 58.800 C 108.903 58.800,100.635 54.679,100.467 54.300 C 100.393 54.135,100.136 54.000,99.895 54.000 C 99.303 54.000,91.035 49.879,90.867 49.500 C 90.793 49.335,90.539 49.200,90.302 49.200 C 89.988 49.200,42.385 25.592,12.356 10.544 C 12.221 10.477,11.996 10.537,11.856 10.678 " stroke="none" fill="#040404" fill-rule="evenodd"></path><path id="path1" d="M0.000 200.000 L 0.000 400.000 200.000 400.000 L 400.000 400.000 400.000 200.000 L 400.000 0.000 200.000 0.000 L 0.000 0.000 0.000 200.000 M33.235 20.042 C 52.156 29.466,60.953 33.863,62.764 34.803 C 63.114 34.985,65.274 36.065,67.564 37.203 C 69.854 38.342,72.014 39.422,72.364 39.603 C 72.714 39.785,74.874 40.865,77.164 42.003 C 79.454 43.142,81.614 44.225,81.964 44.410 C 86.822 46.985,231.235 118.800,231.555 118.800 C 231.800 118.800,232.000 118.980,232.000 119.200 C 232.000 119.420,232.274 119.600,232.608 119.600 C 232.942 119.600,233.929 120.050,234.800 120.600 C 235.671 121.150,236.571 121.600,236.800 121.600 C 237.029 121.600,237.929 122.050,238.800 122.600 C 239.671 123.150,240.658 123.600,240.992 123.600 C 241.326 123.600,241.600 123.780,241.600 124.000 C 241.600 124.220,241.874 124.400,242.208 124.400 C 242.542 124.400,243.529 124.850,244.400 125.400 C 245.271 125.950,246.171 126.400,246.400 126.400 C 246.629 126.400,247.529 126.850,248.400 127.400 C 249.271 127.950,250.258 128.400,250.592 128.400 C 250.926 128.400,251.200 128.580,251.200 128.800 C 251.200 129.020,251.474 129.200,251.808 129.200 C 252.142 129.200,253.129 129.650,254.000 130.200 C 254.871 130.750,255.723 131.199,255.892 131.198 C 256.387 131.195,264.587 135.370,264.733 135.700 C 264.807 135.865,265.077 135.999,265.333 135.998 C 265.939 135.995,274.159 140.107,274.333 140.500 C 274.407 140.665,274.677 140.797,274.933 140.794 C 275.532 140.786,279.757 142.904,279.933 143.300 C 280.007 143.465,280.307 143.600,280.601 143.600 C 281.243 143.600,283.745 144.877,283.933 145.300 C 284.007 145.465,284.269 145.600,284.517 145.600 C 285.098 145.600,393.126 199.556,393.385 199.976 C 393.795 200.639,287.447 254.400,285.725 254.400 C 285.473 254.400,285.207 254.535,285.133 254.700 C 284.945 255.123,282.443 256.400,281.801 256.400 C 281.507 256.400,281.207 256.535,281.133 256.700 C 280.957 257.096,276.732 259.214,276.133 259.206 C 275.877 259.203,275.607 259.335,275.533 259.500 C 275.345 259.923,272.843 261.200,272.201 261.200 C 271.907 261.200,271.607 261.335,271.533 261.500 C 271.357 261.896,267.132 264.014,266.533 264.006 C 266.277 264.003,266.007 264.135,265.933 264.300 C 265.745 264.723,263.243 266.000,262.601 266.000 C 262.307 266.000,262.007 266.135,261.933 266.300 C 261.784 266.636,257.573 268.816,257.092 268.806 C 256.923 268.803,256.071 269.250,255.200 269.800 C 254.329 270.350,253.357 270.800,253.041 270.800 C 252.725 270.800,252.407 270.935,252.333 271.100 C 252.184 271.436,247.973 273.616,247.492 273.606 C 247.323 273.603,246.471 274.050,245.600 274.600 C 244.729 275.150,243.757 275.600,243.441 275.600 C 243.125 275.600,242.807 275.735,242.733 275.900 C 242.588 276.227,238.375 278.400,237.886 278.400 C 237.720 278.400,236.871 278.850,236.000 279.400 C 235.129 279.950,234.157 280.400,233.841 280.400 C 233.525 280.400,233.207 280.535,233.133 280.700 C 232.988 281.027,228.775 283.200,228.286 283.200 C 228.120 283.200,227.271 283.650,226.400 284.200 C 225.529 284.750,224.542 285.200,224.208 285.200 C 223.874 285.200,223.600 285.380,223.600 285.600 C 223.600 285.820,223.326 286.000,222.992 286.000 C 222.658 286.000,221.671 286.450,220.800 287.000 C 219.929 287.550,219.029 288.000,218.800 288.000 C 218.571 288.000,217.671 288.450,216.800 289.000 C 215.929 289.550,214.942 290.000,214.608 290.000 C 214.274 290.000,214.000 290.180,214.000 290.400 C 214.000 290.620,213.726 290.800,213.392 290.800 C 213.058 290.800,212.071 291.250,211.200 291.800 C 210.329 292.350,209.480 292.800,209.314 292.800 C 208.825 292.800,204.612 294.973,204.467 295.300 C 204.393 295.465,204.075 295.600,203.759 295.600 C 203.443 295.600,202.471 296.050,201.600 296.600 C 200.729 297.150,199.901 297.600,199.761 297.600 C 199.621 297.600,160.512 317.063,112.853 340.851 C 65.194 364.639,22.988 385.699,19.061 387.651 C 15.135 389.603,11.760 391.099,11.561 390.976 C 11.145 390.719,11.050 10.283,11.467 9.867 C 11.916 9.417,11.691 9.312,33.235 20.042 " stroke="none" fill="#fbfbfb" fill-rule="evenodd"></path><path id="path2" d="M15.200 11.791 C 15.200 12.037,18.499 13.635,18.665 13.469 C 18.785 13.348,15.696 11.600,15.362 11.600 C 15.273 11.600,15.200 11.686,15.200 11.791 M21.376 15.013 C 21.804 15.336,22.333 15.600,22.553 15.600 C 22.773 15.600,22.604 15.336,22.176 15.013 C 21.749 14.690,21.220 14.425,21.000 14.425 C 20.780 14.425,20.949 14.690,21.376 15.013 M24.800 16.591 C 24.800 16.837,28.099 18.435,28.265 18.269 C 28.385 18.148,25.296 16.400,24.962 16.400 C 24.873 16.400,24.800 16.486,24.800 16.591 M30.433 19.357 C 30.962 19.855,33.725 21.208,33.886 21.048 C 33.991 20.942,33.306 20.483,32.364 20.028 C 30.739 19.243,30.063 19.008,30.433 19.357 M34.433 21.357 C 34.883 21.781,37.713 23.220,37.842 23.091 C 37.924 23.010,37.255 22.551,36.357 22.072 C 34.870 21.277,34.010 20.958,34.433 21.357 M40.033 24.157 C 40.562 24.655,43.325 26.008,43.486 25.848 C 43.591 25.742,42.906 25.283,41.964 24.828 C 40.339 24.043,39.663 23.808,40.033 24.157 M44.000 26.191 C 44.000 26.437,47.299 28.035,47.465 27.869 C 47.585 27.748,44.496 26.000,44.162 26.000 C 44.073 26.000,44.000 26.086,44.000 26.191 M49.633 28.957 C 50.162 29.455,52.925 30.808,53.086 30.648 C 53.191 30.542,52.506 30.083,51.564 29.628 C 49.939 28.843,49.263 28.608,49.633 28.957 M53.600 30.950 C 53.600 31.259,58.516 33.617,58.725 33.408 C 58.863 33.270,56.838 32.205,53.900 30.870 C 53.735 30.795,53.600 30.831,53.600 30.950 M59.233 33.757 C 59.762 34.255,62.525 35.608,62.686 35.448 C 62.791 35.342,62.106 34.883,61.164 34.428 C 59.539 33.643,58.863 33.408,59.233 33.757 M63.204 35.716 C 63.644 36.202,68.126 38.407,68.307 38.226 C 68.413 38.121,67.442 37.533,66.149 36.920 C 63.323 35.580,62.939 35.423,63.204 35.716 M68.833 38.557 C 69.362 39.055,72.125 40.408,72.286 40.248 C 72.391 40.142,71.706 39.683,70.764 39.228 C 69.139 38.443,68.463 38.208,68.833 38.557 M72.804 40.516 C 73.244 41.002,77.726 43.207,77.907 43.026 C 78.013 42.921,77.042 42.333,75.749 41.720 C 72.923 40.380,72.539 40.223,72.804 40.516 M78.433 43.357 C 78.962 43.855,81.725 45.208,81.886 45.048 C 81.991 44.942,81.306 44.483,80.364 44.028 C 78.739 43.243,78.063 43.008,78.433 43.357 M84.611 46.518 C 85.640 47.194,87.600 48.034,87.600 47.800 C 87.600 47.577,84.556 46.000,84.127 46.000 C 83.959 46.000,84.177 46.233,84.611 46.518 M88.624 48.587 C 89.051 48.910,89.670 49.179,90.000 49.185 C 90.330 49.190,90.084 48.926,89.454 48.598 C 87.995 47.837,87.625 47.832,88.624 48.587 M90.800 49.502 C 90.800 49.679,91.340 50.028,92.000 50.278 C 92.660 50.527,93.200 50.661,93.200 50.576 C 93.200 50.490,92.660 50.141,92.000 49.800 C 91.340 49.459,90.800 49.325,90.800 49.502 M94.211 51.318 C 95.240 51.994,97.200 52.834,97.200 52.600 C 97.200 52.377,94.156 50.800,93.727 50.800 C 93.559 50.800,93.777 51.033,94.211 51.318 M98.224 53.387 C 98.651 53.710,99.270 53.979,99.600 53.985 C 99.930 53.990,99.684 53.726,99.054 53.398 C 97.595 52.637,97.225 52.632,98.224 53.387 M100.400 54.302 C 100.400 54.479,100.940 54.828,101.600 55.078 C 102.260 55.327,102.800 55.461,102.800 55.376 C 102.800 55.290,102.260 54.941,101.600 54.600 C 100.940 54.259,100.400 54.125,100.400 54.302 M103.811 56.118 C 104.840 56.794,106.800 57.634,106.800 57.400 C 106.800 57.177,103.756 55.600,103.327 55.600 C 103.159 55.600,103.377 55.833,103.811 56.118 M107.824 58.187 C 108.251 58.510,108.870 58.779,109.200 58.785 C 109.530 58.790,109.284 58.526,108.654 58.198 C 107.195 57.437,106.825 57.432,107.824 58.187 M110.000 59.102 C 110.000 59.279,110.540 59.628,111.200 59.878 C 111.860 60.127,112.400 60.261,112.400 60.176 C 112.400 60.090,111.860 59.741,111.200 59.400 C 110.540 59.059,110.000 58.925,110.000 59.102 M113.424 60.987 C 113.851 61.310,114.470 61.574,114.800 61.573 C 115.148 61.572,114.980 61.332,114.400 61.000 C 113.085 60.248,112.436 60.240,113.424 60.987 M115.600 61.797 C 115.600 62.068,118.849 63.684,119.030 63.503 C 119.114 63.419,118.376 62.959,117.391 62.481 C 116.406 62.002,115.600 61.694,115.600 61.797 M119.600 63.779 C 119.600 63.889,120.140 64.259,120.800 64.600 C 121.460 64.941,122.000 65.131,122.000 65.021 C 122.000 64.911,121.460 64.541,120.800 64.200 C 120.140 63.859,119.600 63.669,119.600 63.779 M123.024 65.787 C 123.451 66.110,124.070 66.374,124.400 66.373 C 124.748 66.372,124.580 66.132,124.000 65.800 C 122.685 65.048,122.036 65.040,123.024 65.787 M125.200 66.597 C 125.200 66.868,128.449 68.484,128.630 68.303 C 128.714 68.219,127.976 67.759,126.991 67.281 C 126.006 66.802,125.200 66.494,125.200 66.597 M129.200 68.579 C 129.200 68.689,129.740 69.059,130.400 69.400 C 131.060 69.741,131.600 69.931,131.600 69.821 C 131.600 69.711,131.060 69.341,130.400 69.000 C 129.740 68.659,129.200 68.469,129.200 68.579 M132.624 70.587 C 133.051 70.910,133.670 71.174,134.000 71.173 C 134.348 71.172,134.180 70.932,133.600 70.600 C 132.285 69.848,131.636 69.840,132.624 70.587 M134.800 71.397 C 134.800 71.668,138.049 73.284,138.230 73.103 C 138.314 73.019,137.576 72.559,136.591 72.081 C 135.606 71.602,134.800 71.294,134.800 71.397 M138.800 73.398 C 138.800 73.666,143.649 76.085,143.828 75.906 C 143.908 75.825,142.810 75.185,141.387 74.483 C 139.964 73.782,138.800 73.293,138.800 73.398 M144.400 76.197 C 144.400 76.468,147.649 78.084,147.830 77.903 C 147.914 77.819,147.176 77.359,146.191 76.881 C 145.206 76.402,144.400 76.094,144.400 76.197 M150.000 78.997 C 150.000 79.268,153.249 80.884,153.430 80.703 C 153.514 80.619,152.776 80.159,151.791 79.681 C 150.806 79.202,150.000 78.894,150.000 78.997 M154.000 80.997 C 154.000 81.268,157.249 82.884,157.430 82.703 C 157.514 82.619,156.776 82.159,155.791 81.681 C 154.806 81.202,154.000 80.894,154.000 80.997 M159.600 83.797 C 159.600 84.068,162.849 85.684,163.030 85.503 C 163.114 85.419,162.376 84.959,161.391 84.481 C 160.406 84.002,159.600 83.694,159.600 83.797 M163.600 85.797 C 163.600 86.068,166.849 87.684,167.030 87.503 C 167.114 87.419,166.376 86.959,165.391 86.481 C 164.406 86.002,163.600 85.694,163.600 85.797 M169.200 88.599 C 169.200 88.789,172.389 90.400,172.764 90.400 C 173.116 90.400,171.482 89.399,170.300 88.890 C 169.695 88.630,169.200 88.499,169.200 88.599 M173.200 90.579 C 173.200 90.869,178.087 93.246,178.281 93.052 C 178.361 92.972,177.386 92.406,176.113 91.794 C 174.841 91.182,173.665 90.607,173.500 90.517 C 173.335 90.427,173.200 90.455,173.200 90.579 M178.800 93.399 C 178.800 93.589,181.989 95.200,182.364 95.200 C 182.716 95.200,181.082 94.199,179.900 93.690 C 179.295 93.430,178.800 93.299,178.800 93.399 M182.800 95.379 C 182.800 95.669,187.687 98.046,187.881 97.852 C 187.961 97.772,186.986 97.206,185.713 96.594 C 184.441 95.982,183.265 95.407,183.100 95.317 C 182.935 95.227,182.800 95.255,182.800 95.379 M188.400 98.199 C 188.400 98.389,191.589 100.000,191.964 100.000 C 192.316 100.000,190.682 98.999,189.500 98.490 C 188.895 98.230,188.400 98.099,188.400 98.199 M192.400 100.179 C 192.400 100.469,197.287 102.846,197.481 102.652 C 197.561 102.572,196.586 102.006,195.313 101.394 C 194.041 100.782,192.865 100.207,192.700 100.117 C 192.535 100.027,192.400 100.055,192.400 100.179 M198.000 102.991 C 198.000 103.237,201.299 104.835,201.465 104.669 C 201.585 104.548,198.496 102.800,198.162 102.800 C 198.073 102.800,198.000 102.886,198.000 102.991 M203.600 105.791 C 203.600 106.037,206.899 107.635,207.065 107.469 C 207.185 107.348,204.096 105.600,203.762 105.600 C 203.673 105.600,203.600 105.686,203.600 105.791 M207.600 107.791 C 207.600 108.037,210.899 109.635,211.065 109.469 C 211.185 109.348,208.096 107.600,207.762 107.600 C 207.673 107.600,207.600 107.686,207.600 107.791 M213.200 110.591 C 213.200 110.837,216.499 112.435,216.665 112.269 C 216.785 112.148,213.696 110.400,213.362 110.400 C 213.273 110.400,213.200 110.486,213.200 110.591 M217.200 112.591 C 217.200 112.837,220.499 114.435,220.665 114.269 C 220.785 114.148,217.696 112.400,217.362 112.400 C 217.273 112.400,217.200 112.486,217.200 112.591 M222.800 115.391 C 222.800 115.637,226.099 117.235,226.265 117.069 C 226.385 116.948,223.296 115.200,222.962 115.200 C 222.873 115.200,222.800 115.286,222.800 115.391 M226.800 117.350 C 226.800 117.659,231.716 120.017,231.925 119.808 C 232.063 119.670,230.038 118.605,227.100 117.270 C 226.935 117.195,226.800 117.231,226.800 117.350 M232.433 120.157 C 232.883 120.581,235.713 122.020,235.842 121.891 C 235.924 121.810,235.255 121.351,234.357 120.872 C 232.870 120.077,232.010 119.758,232.433 120.157 M236.400 122.150 C 236.400 122.459,241.316 124.817,241.525 124.608 C 241.663 124.470,239.638 123.405,236.700 122.070 C 236.535 121.995,236.400 122.031,236.400 122.150 M242.000 124.991 C 242.000 125.237,245.299 126.835,245.465 126.669 C 245.585 126.548,242.496 124.800,242.162 124.800 C 242.073 124.800,242.000 124.886,242.000 124.991 M247.633 127.757 C 248.162 128.255,250.925 129.608,251.086 129.448 C 251.191 129.342,250.506 128.883,249.564 128.428 C 247.939 127.643,247.263 127.408,247.633 127.757 M251.600 129.791 C 251.600 130.037,254.899 131.635,255.065 131.469 C 255.185 131.348,252.096 129.600,251.762 129.600 C 251.673 129.600,251.600 129.686,251.600 129.791 M257.233 132.557 C 257.762 133.055,260.525 134.408,260.686 134.248 C 260.791 134.142,260.106 133.683,259.164 133.228 C 257.539 132.443,256.863 132.208,257.233 132.557 M261.204 134.516 C 261.644 135.002,266.126 137.207,266.307 137.026 C 266.413 136.921,265.442 136.333,264.149 135.720 C 261.323 134.380,260.939 134.223,261.204 134.516 M266.833 137.357 C 267.362 137.855,270.125 139.208,270.286 139.048 C 270.391 138.942,269.706 138.483,268.764 138.028 C 267.139 137.243,266.463 137.008,266.833 137.357 M270.804 139.316 C 271.244 139.802,275.726 142.007,275.907 141.826 C 276.013 141.721,275.042 141.133,273.749 140.520 C 270.923 139.180,270.539 139.023,270.804 139.316 M276.433 142.157 C 276.962 142.655,279.725 144.008,279.886 143.848 C 279.991 143.742,279.306 143.283,278.364 142.828 C 276.739 142.043,276.063 141.808,276.433 142.157 M280.404 144.116 C 280.844 144.602,285.326 146.807,285.507 146.626 C 285.613 146.521,284.642 145.933,283.349 145.320 C 280.523 143.980,280.139 143.823,280.404 144.116 M286.033 146.957 C 286.532 147.426,289.295 148.797,289.712 148.782 C 290.236 148.763,286.845 146.848,286.233 146.818 C 286.032 146.808,285.942 146.871,286.033 146.957 M292.224 150.187 C 292.651 150.510,293.270 150.774,293.600 150.773 C 293.948 150.772,293.780 150.532,293.200 150.200 C 291.885 149.448,291.236 149.440,292.224 150.187 M295.633 151.757 C 296.132 152.226,298.895 153.597,299.312 153.582 C 299.836 153.563,296.445 151.648,295.833 151.618 C 295.632 151.608,295.542 151.671,295.633 151.757 M301.824 154.987 C 302.251 155.310,302.870 155.574,303.200 155.573 C 303.548 155.572,303.380 155.332,302.800 155.000 C 301.485 154.248,300.836 154.240,301.824 154.987 M305.233 156.557 C 305.732 157.026,308.495 158.397,308.912 158.382 C 309.436 158.363,306.045 156.448,305.433 156.418 C 305.232 156.408,305.142 156.471,305.233 156.557 M311.424 159.787 C 311.851 160.110,312.470 160.374,312.800 160.373 C 313.148 160.372,312.980 160.132,312.400 159.800 C 311.085 159.048,310.436 159.040,311.424 159.787 M313.600 160.597 C 313.600 160.868,316.849 162.484,317.030 162.303 C 317.114 162.219,316.376 161.759,315.391 161.281 C 314.406 160.802,313.600 160.494,313.600 160.597 M319.200 163.366 C 319.200 163.679,322.113 165.229,322.475 165.108 C 322.681 165.040,322.028 164.585,321.025 164.097 C 320.021 163.609,319.200 163.280,319.200 163.366 M323.200 165.397 C 323.200 165.668,326.449 167.284,326.630 167.103 C 326.714 167.019,325.976 166.559,324.991 166.081 C 324.006 165.602,323.200 165.294,323.200 165.397 M328.800 168.166 C 328.800 168.479,331.713 170.029,332.075 169.908 C 332.281 169.840,331.628 169.385,330.625 168.897 C 329.621 168.409,328.800 168.080,328.800 168.166 M332.800 170.197 C 332.800 170.468,336.049 172.084,336.230 171.903 C 336.314 171.819,335.576 171.359,334.591 170.881 C 333.606 170.402,332.800 170.094,332.800 170.197 M338.400 172.966 C 338.400 173.279,341.313 174.829,341.675 174.708 C 341.881 174.640,341.228 174.185,340.225 173.697 C 339.221 173.209,338.400 172.880,338.400 172.966 M348.000 177.797 C 348.000 178.068,351.249 179.684,351.430 179.503 C 351.514 179.419,350.776 178.959,349.791 178.481 C 348.806 178.002,348.000 177.694,348.000 177.797 M357.600 182.597 C 357.600 182.868,360.849 184.484,361.030 184.303 C 361.114 184.219,360.376 183.759,359.391 183.281 C 358.406 182.802,357.600 182.494,357.600 182.597 M367.200 187.397 C 367.200 187.668,370.449 189.284,370.630 189.103 C 370.714 189.019,369.976 188.559,368.991 188.081 C 368.006 187.602,367.200 187.294,367.200 187.397 M373.376 190.613 C 373.804 190.936,374.333 191.200,374.553 191.200 C 374.773 191.200,374.604 190.936,374.176 190.613 C 373.749 190.290,373.220 190.025,373.000 190.025 C 372.780 190.025,372.949 190.290,373.376 190.613 M376.800 192.192 C 376.800 192.470,380.048 194.085,380.234 193.899 C 380.320 193.814,379.655 193.351,378.757 192.872 C 377.053 191.962,376.800 191.874,376.800 192.192 M382.976 195.413 C 383.404 195.736,383.933 196.000,384.153 196.000 C 384.373 196.000,384.204 195.736,383.776 195.413 C 383.349 195.090,382.820 194.825,382.600 194.825 C 382.380 194.825,382.549 195.090,382.976 195.413 M386.400 197.000 C 386.400 197.223,389.444 198.800,389.873 198.800 C 390.041 198.800,389.823 198.567,389.389 198.282 C 388.360 197.606,386.400 196.766,386.400 197.000 M391.884 200.400 C 391.769 200.840,391.838 201.200,392.037 201.200 C 392.237 201.200,392.400 201.125,392.400 201.033 C 392.400 200.941,392.509 200.581,392.643 200.233 C 392.776 199.885,392.707 199.600,392.489 199.600 C 392.272 199.600,391.999 199.960,391.884 200.400 M385.102 204.104 C 384.279 204.563,383.673 205.006,383.755 205.089 C 383.886 205.220,386.712 203.785,387.167 203.357 C 387.614 202.935,386.436 203.362,385.102 204.104 M379.457 206.867 C 378.608 207.296,378.002 207.735,378.110 207.843 C 378.274 208.007,381.030 206.663,381.567 206.157 C 381.964 205.783,380.880 206.148,379.457 206.867 M375.502 208.904 C 374.679 209.363,374.073 209.806,374.155 209.889 C 374.286 210.020,377.112 208.585,377.567 208.157 C 378.014 207.735,376.836 208.162,375.502 208.904 M369.857 211.667 C 369.008 212.096,368.402 212.535,368.510 212.643 C 368.674 212.807,371.430 211.463,371.967 210.957 C 372.364 210.583,371.280 210.948,369.857 211.667 M364.976 214.187 C 364.549 214.510,364.380 214.775,364.600 214.775 C 364.820 214.775,365.349 214.510,365.776 214.187 C 366.204 213.864,366.373 213.600,366.153 213.600 C 365.933 213.600,365.404 213.864,364.976 214.187 M360.257 216.467 C 359.408 216.896,358.802 217.335,358.910 217.443 C 359.074 217.607,361.830 216.263,362.367 215.757 C 362.764 215.383,361.680 215.748,360.257 216.467 M355.376 218.987 C 354.949 219.310,354.780 219.575,355.000 219.575 C 355.220 219.575,355.749 219.310,356.176 218.987 C 356.604 218.664,356.773 218.400,356.553 218.400 C 356.333 218.400,355.804 218.664,355.376 218.987 M350.657 221.267 C 349.808 221.696,349.202 222.135,349.310 222.243 C 349.474 222.407,352.230 221.063,352.767 220.557 C 353.164 220.183,352.080 220.548,350.657 221.267 M345.776 223.787 C 345.349 224.110,345.180 224.375,345.400 224.375 C 345.620 224.375,346.149 224.110,346.576 223.787 C 347.004 223.464,347.173 223.200,346.953 223.200 C 346.733 223.200,346.204 223.464,345.776 223.787 M341.100 226.027 C 340.275 226.463,339.600 226.908,339.600 227.018 C 339.600 227.196,342.759 225.719,343.167 225.351 C 343.627 224.934,342.425 225.328,341.100 226.027 M335.500 228.827 C 334.675 229.263,334.000 229.708,334.000 229.818 C 334.000 229.996,337.159 228.519,337.567 228.151 C 338.027 227.734,336.825 228.128,335.500 228.827 M331.500 230.827 C 330.675 231.263,330.000 231.708,330.000 231.818 C 330.000 231.996,333.159 230.519,333.567 230.151 C 334.027 229.734,332.825 230.128,331.500 230.827 M325.900 233.627 C 325.075 234.063,324.400 234.508,324.400 234.618 C 324.400 234.796,327.559 233.319,327.967 232.951 C 328.427 232.534,327.225 232.928,325.900 233.627 M321.900 235.627 C 321.075 236.063,320.400 236.508,320.400 236.618 C 320.400 236.796,323.559 235.319,323.967 234.951 C 324.427 234.534,323.225 234.928,321.900 235.627 M316.300 238.427 C 315.475 238.863,314.800 239.308,314.800 239.418 C 314.800 239.596,317.959 238.119,318.367 237.751 C 318.827 237.334,317.625 237.728,316.300 238.427 M309.500 241.824 C 307.135 243.025,305.200 244.097,305.200 244.207 C 305.200 244.386,313.960 240.131,314.367 239.754 C 314.977 239.189,313.210 239.941,309.500 241.824 M301.900 245.626 C 300.635 246.279,299.600 246.903,299.600 247.012 C 299.600 247.191,304.360 244.925,304.767 244.553 C 305.290 244.073,303.898 244.594,301.900 245.626 M297.100 248.027 C 296.275 248.463,295.600 248.908,295.600 249.018 C 295.600 249.196,298.759 247.719,299.167 247.351 C 299.627 246.934,298.425 247.328,297.100 248.027 M292.300 250.426 C 291.035 251.079,290.000 251.703,290.000 251.812 C 290.000 251.991,294.760 249.725,295.167 249.353 C 295.690 248.873,294.298 249.394,292.300 250.426 M286.091 253.485 C 284.491 254.271,283.257 254.991,283.350 255.083 C 283.442 255.175,284.931 254.529,286.659 253.646 C 288.386 252.762,289.620 252.043,289.400 252.047 C 289.180 252.051,287.691 252.698,286.091 253.485 M280.084 256.466 C 278.700 257.146,277.647 257.781,277.744 257.877 C 277.943 258.077,282.800 255.692,282.800 255.394 C 282.800 255.124,282.879 255.093,280.084 256.466 M275.285 258.871 C 274.342 259.329,273.649 259.782,273.746 259.879 C 273.945 260.079,277.200 258.489,277.200 258.192 C 277.200 257.937,277.247 257.920,275.285 258.871 M269.502 261.704 C 268.679 262.163,268.076 262.610,268.164 262.697 C 268.351 262.884,271.600 261.272,271.600 260.992 C 271.600 260.657,271.043 260.847,269.502 261.704 M265.685 263.671 C 264.742 264.129,264.049 264.582,264.146 264.679 C 264.345 264.879,267.600 263.289,267.600 262.992 C 267.600 262.737,267.647 262.720,265.685 263.671 M259.902 266.504 C 259.079 266.963,258.476 267.410,258.564 267.497 C 258.751 267.684,262.000 266.072,262.000 265.792 C 262.000 265.457,261.443 265.647,259.902 266.504 M255.284 268.866 C 253.900 269.546,252.835 270.168,252.916 270.249 C 253.102 270.436,258.000 268.079,258.000 267.803 C 258.000 267.523,258.089 267.488,255.284 268.866 M250.302 271.304 C 249.479 271.763,248.863 272.196,248.933 272.266 C 249.101 272.434,252.400 270.839,252.400 270.591 C 252.400 270.258,251.842 270.448,250.302 271.304 M245.498 273.703 C 244.232 274.377,243.256 274.989,243.330 275.063 C 243.507 275.240,248.400 272.866,248.400 272.603 C 248.400 272.243,247.845 272.453,245.498 273.703 M240.702 276.104 C 239.879 276.563,239.263 276.996,239.333 277.066 C 239.501 277.234,242.800 275.639,242.800 275.391 C 242.800 275.058,242.242 275.248,240.702 276.104 M235.898 278.503 C 234.632 279.177,233.656 279.789,233.730 279.863 C 233.907 280.040,238.800 277.666,238.800 277.403 C 238.800 277.043,238.245 277.253,235.898 278.503 M231.102 280.904 C 230.279 281.363,229.663 281.796,229.733 281.866 C 229.901 282.034,233.200 280.439,233.200 280.191 C 233.200 279.858,232.642 280.048,231.102 280.904 M225.457 283.667 C 224.608 284.096,224.002 284.535,224.110 284.643 C 224.274 284.807,227.030 283.463,227.567 282.957 C 227.964 282.583,226.880 282.948,225.457 283.667 M221.502 285.704 C 220.679 286.163,220.063 286.596,220.133 286.666 C 220.301 286.834,223.600 285.239,223.600 284.991 C 223.600 284.658,223.042 284.848,221.502 285.704 M215.857 288.467 C 215.008 288.896,214.402 289.335,214.510 289.443 C 214.674 289.607,217.430 288.263,217.967 287.757 C 218.364 287.383,217.280 287.748,215.857 288.467 M211.902 290.504 C 211.079 290.963,210.463 291.396,210.533 291.466 C 210.701 291.634,214.000 290.039,214.000 289.791 C 214.000 289.458,213.442 289.648,211.902 290.504 M206.257 293.267 C 205.408 293.696,204.802 294.135,204.910 294.243 C 205.074 294.407,207.830 293.063,208.367 292.557 C 208.764 292.183,207.680 292.548,206.257 293.267 M202.302 295.304 C 201.479 295.763,200.863 296.196,200.933 296.266 C 201.101 296.434,204.400 294.839,204.400 294.591 C 204.400 294.258,203.842 294.448,202.302 295.304 M196.657 298.067 C 195.808 298.496,195.202 298.935,195.310 299.043 C 195.474 299.207,198.230 297.863,198.767 297.357 C 199.164 296.983,198.080 297.348,196.657 298.067 M191.057 300.867 C 190.208 301.296,189.602 301.735,189.710 301.843 C 189.874 302.007,192.630 300.663,193.167 300.157 C 193.564 299.783,192.480 300.148,191.057 300.867 M187.057 302.867 C 186.208 303.296,185.602 303.735,185.710 303.843 C 185.874 304.007,188.630 302.663,189.167 302.157 C 189.564 301.783,188.480 302.148,187.057 302.867 M181.457 305.667 C 180.608 306.096,180.002 306.535,180.110 306.643 C 180.274 306.807,183.030 305.463,183.567 304.957 C 183.964 304.583,182.880 304.948,181.457 305.667 M177.457 307.667 C 176.608 308.096,176.002 308.535,176.110 308.643 C 176.274 308.807,179.030 307.463,179.567 306.957 C 179.964 306.583,178.880 306.948,177.457 307.667 M171.857 310.467 C 171.008 310.896,170.402 311.335,170.510 311.443 C 170.674 311.607,173.430 310.263,173.967 309.757 C 174.364 309.383,173.280 309.748,171.857 310.467 M166.976 312.987 C 166.549 313.310,166.380 313.575,166.600 313.575 C 166.820 313.575,167.349 313.310,167.776 312.987 C 168.204 312.664,168.373 312.400,168.153 312.400 C 167.933 312.400,167.404 312.664,166.976 312.987 M162.300 315.227 C 161.475 315.663,160.800 316.101,160.800 316.201 C 160.800 316.435,162.762 315.592,163.789 314.918 C 164.994 314.127,163.990 314.335,162.300 315.227 M157.376 317.787 C 156.949 318.110,156.780 318.375,157.000 318.375 C 157.220 318.375,157.749 318.110,158.176 317.787 C 158.604 317.464,158.773 317.200,158.553 317.200 C 158.333 317.200,157.804 317.464,157.376 317.787 M152.700 320.047 C 151.875 320.464,151.200 320.891,151.200 320.995 C 151.200 321.233,153.149 320.401,154.189 319.718 C 155.333 318.967,154.446 319.162,152.700 320.047 M147.776 322.587 C 147.349 322.910,147.180 323.175,147.400 323.175 C 147.620 323.175,148.149 322.910,148.576 322.587 C 149.004 322.264,149.173 322.000,148.953 322.000 C 148.733 322.000,148.204 322.264,147.776 322.587 M143.100 324.847 C 142.275 325.264,141.600 325.691,141.600 325.795 C 141.600 326.033,143.549 325.201,144.589 324.518 C 145.733 323.767,144.846 323.962,143.100 324.847 M137.500 327.627 C 136.675 328.063,136.000 328.508,136.000 328.618 C 136.000 328.796,139.159 327.319,139.567 326.951 C 140.027 326.534,138.825 326.928,137.500 327.627 M133.500 329.627 C 132.675 330.063,132.000 330.508,132.000 330.618 C 132.000 330.796,135.159 329.319,135.567 328.951 C 136.027 328.534,134.825 328.928,133.500 329.627 M127.900 332.427 C 127.075 332.863,126.400 333.308,126.400 333.418 C 126.400 333.596,129.559 332.119,129.967 331.751 C 130.427 331.334,129.225 331.728,127.900 332.427 M123.900 334.427 C 123.075 334.863,122.400 335.308,122.400 335.418 C 122.400 335.596,125.559 334.119,125.967 333.751 C 126.427 333.334,125.225 333.728,123.900 334.427 M118.300 337.227 C 117.475 337.663,116.800 338.108,116.800 338.218 C 116.800 338.396,119.959 336.919,120.367 336.551 C 120.827 336.134,119.625 336.528,118.300 337.227 M114.300 339.227 C 113.475 339.663,112.800 340.108,112.800 340.218 C 112.800 340.396,115.959 338.919,116.367 338.551 C 116.827 338.134,115.625 338.528,114.300 339.227 M108.700 342.027 C 107.875 342.463,107.200 342.908,107.200 343.018 C 107.200 343.196,110.359 341.719,110.767 341.351 C 111.227 340.934,110.025 341.328,108.700 342.027 M104.697 343.966 C 102.852 345.149,102.899 345.349,104.800 344.400 C 106.920 343.342,107.123 343.190,106.367 343.229 C 106.055 343.245,105.304 343.577,104.697 343.966 M99.100 346.827 C 98.275 347.263,97.600 347.708,97.600 347.818 C 97.600 347.996,100.759 346.519,101.167 346.151 C 101.627 345.734,100.425 346.128,99.100 346.827 M94.200 349.148 C 91.684 350.471,91.837 350.372,92.033 350.560 C 92.125 350.648,93.370 350.117,94.800 349.380 C 96.230 348.642,97.130 348.052,96.800 348.067 C 96.470 348.083,95.300 348.569,94.200 349.148 M89.497 351.566 C 87.652 352.749,87.699 352.949,89.600 352.000 C 91.720 350.942,91.923 350.790,91.167 350.829 C 90.855 350.845,90.104 351.177,89.497 351.566 M84.600 353.948 C 82.084 355.271,82.237 355.172,82.433 355.360 C 82.525 355.448,83.770 354.917,85.200 354.180 C 86.630 353.442,87.530 352.852,87.200 352.867 C 86.870 352.883,85.700 353.369,84.600 353.948 M80.224 356.213 C 79.225 356.968,79.595 356.963,81.054 356.202 C 81.684 355.874,81.930 355.610,81.600 355.615 C 81.270 355.621,80.651 355.890,80.224 356.213 M76.224 358.213 C 75.236 358.960,75.885 358.952,77.200 358.200 C 77.780 357.868,77.948 357.628,77.600 357.627 C 77.270 357.626,76.651 357.890,76.224 358.213 M73.900 359.320 C 73.295 359.559,72.800 359.904,72.800 360.087 C 72.800 360.271,73.340 360.141,74.000 359.800 C 74.891 359.339,75.807 358.542,75.100 358.843 C 75.045 358.866,74.505 359.081,73.900 359.320 M70.624 361.013 C 69.625 361.768,69.995 361.763,71.454 361.002 C 72.084 360.674,72.330 360.410,72.000 360.415 C 71.670 360.421,71.051 360.690,70.624 361.013 M66.624 363.013 C 65.636 363.760,66.285 363.752,67.600 363.000 C 68.180 362.668,68.348 362.428,68.000 362.427 C 67.670 362.426,67.051 362.690,66.624 363.013 M64.300 364.120 C 63.695 364.359,63.200 364.704,63.200 364.887 C 63.200 365.071,63.740 364.941,64.400 364.600 C 65.291 364.139,66.207 363.342,65.500 363.643 C 65.445 363.666,64.905 363.881,64.300 364.120 M61.024 365.813 C 60.025 366.568,60.395 366.563,61.854 365.802 C 62.484 365.474,62.730 365.210,62.400 365.215 C 62.070 365.221,61.451 365.490,61.024 365.813 M57.024 367.813 C 56.036 368.560,56.685 368.552,58.000 367.800 C 58.580 367.468,58.748 367.228,58.400 367.227 C 58.070 367.226,57.451 367.490,57.024 367.813 M52.302 370.104 C 51.479 370.563,50.863 370.996,50.933 371.066 C 51.101 371.234,54.400 369.639,54.400 369.391 C 54.400 369.058,53.842 369.248,52.302 370.104 M47.498 372.503 C 46.232 373.177,45.253 373.786,45.322 373.855 C 45.485 374.019,50.400 371.626,50.400 371.383 C 50.400 371.044,49.811 371.271,47.498 372.503 M42.702 374.904 C 41.879 375.363,41.263 375.796,41.333 375.866 C 41.501 376.034,44.800 374.439,44.800 374.191 C 44.800 373.858,44.242 374.048,42.702 374.904 M37.898 377.303 C 36.632 377.977,35.653 378.586,35.722 378.655 C 35.885 378.819,40.800 376.426,40.800 376.183 C 40.800 375.844,40.211 376.071,37.898 377.303 M33.102 379.704 C 32.279 380.163,31.663 380.596,31.733 380.666 C 31.901 380.834,35.200 379.239,35.200 378.991 C 35.200 378.658,34.642 378.848,33.102 379.704 M27.502 382.504 C 26.679 382.963,26.073 383.406,26.155 383.489 C 26.286 383.620,29.112 382.185,29.567 381.757 C 30.014 381.335,28.836 381.762,27.502 382.504 M22.663 384.876 C 21.377 385.527,20.398 386.132,20.487 386.221 C 20.674 386.407,25.600 384.059,25.600 383.783 C 25.600 383.463,25.058 383.665,22.663 384.876 M17.902 387.304 C 17.079 387.763,16.473 388.206,16.555 388.289 C 16.686 388.420,19.512 386.985,19.967 386.557 C 20.414 386.135,19.236 386.562,17.902 387.304 M14.200 389.200 C 13.540 389.608,12.640 389.969,12.200 390.002 C 11.735 390.038,11.615 390.150,11.913 390.269 C 12.409 390.469,16.000 389.000,16.000 388.598 C 16.000 388.249,15.431 388.439,14.200 389.200 " stroke="none" fill="#747474" fill-rule="evenodd"></path><path id="path3" d="M11.467 9.867 C 11.026 10.308,11.147 390.720,11.588 390.993 C 11.967 391.227,14.400 390.177,14.400 389.779 C 14.400 389.669,13.883 389.847,13.251 390.174 C 12.619 390.501,11.989 390.655,11.851 390.517 C 11.054 389.720,11.603 9.907,12.401 10.116 C 12.841 10.231,13.100 10.162,12.977 9.963 C 12.715 9.538,11.850 9.483,11.467 9.867 M15.811 11.718 C 16.840 12.394,18.800 13.234,18.800 13.000 C 18.800 12.777,15.756 11.200,15.327 11.200 C 15.159 11.200,15.377 11.433,15.811 11.718 M24.833 16.151 C 25.242 16.521,28.400 17.995,28.400 17.816 C 28.400 17.589,25.381 16.000,24.949 16.000 C 24.794 16.000,24.742 16.068,24.833 16.151 M30.433 18.951 C 30.842 19.321,34.000 20.795,34.000 20.616 C 34.000 20.389,30.981 18.800,30.549 18.800 C 30.394 18.800,30.342 18.868,30.433 18.951 M34.433 20.951 C 34.842 21.321,38.000 22.795,38.000 22.616 C 38.000 22.389,34.981 20.800,34.549 20.800 C 34.394 20.800,34.342 20.868,34.433 20.951 M40.033 23.751 C 40.442 24.121,43.600 25.595,43.600 25.416 C 43.600 25.189,40.581 23.600,40.149 23.600 C 39.994 23.600,39.942 23.668,40.033 23.751 M44.033 25.751 C 44.442 26.121,47.600 27.595,47.600 27.416 C 47.600 27.189,44.581 25.600,44.149 25.600 C 43.994 25.600,43.942 25.668,44.033 25.751 M49.633 28.551 C 50.042 28.921,53.200 30.395,53.200 30.216 C 53.200 29.989,50.181 28.400,49.749 28.400 C 49.594 28.400,49.542 28.468,49.633 28.551 M54.400 31.000 C 55.715 31.752,56.364 31.760,55.376 31.013 C 54.949 30.690,54.330 30.426,54.000 30.427 C 53.652 30.428,53.820 30.668,54.400 31.000 M56.400 31.800 C 56.400 32.023,59.444 33.600,59.873 33.600 C 60.041 33.600,59.823 33.367,59.389 33.082 C 58.360 32.406,56.400 31.566,56.400 31.800 M64.000 35.800 C 65.315 36.552,65.964 36.560,64.976 35.813 C 64.549 35.490,63.930 35.226,63.600 35.227 C 63.252 35.228,63.420 35.468,64.000 35.800 M66.000 36.600 C 66.000 36.823,69.044 38.400,69.473 38.400 C 69.641 38.400,69.423 38.167,68.989 37.882 C 67.960 37.206,66.000 36.366,66.000 36.600 M73.600 40.600 C 74.915 41.352,75.564 41.360,74.576 40.613 C 74.149 40.290,73.530 40.026,73.200 40.027 C 72.852 40.028,73.020 40.268,73.600 40.600 M75.600 41.400 C 75.600 41.623,78.644 43.200,79.073 43.200 C 79.241 43.200,79.023 42.967,78.589 42.682 C 77.560 42.006,75.600 41.166,75.600 41.400 M83.200 45.400 C 84.515 46.152,85.164 46.160,84.176 45.413 C 83.749 45.090,83.130 44.826,82.800 44.827 C 82.452 44.828,82.620 45.068,83.200 45.400 M86.800 46.991 C 86.800 47.237,90.099 48.835,90.265 48.669 C 90.385 48.548,87.296 46.800,86.962 46.800 C 86.873 46.800,86.800 46.886,86.800 46.991 M90.800 48.991 C 90.800 49.237,94.099 50.835,94.265 50.669 C 94.385 50.548,91.296 48.800,90.962 48.800 C 90.873 48.800,90.800 48.886,90.800 48.991 M96.400 51.791 C 96.400 52.037,99.699 53.635,99.865 53.469 C 99.985 53.348,96.896 51.600,96.562 51.600 C 96.473 51.600,96.400 51.686,96.400 51.791 M100.400 53.791 C 100.400 54.037,103.699 55.635,103.865 55.469 C 103.985 55.348,100.896 53.600,100.562 53.600 C 100.473 53.600,100.400 53.686,100.400 53.791 M106.000 56.591 C 106.000 56.837,109.299 58.435,109.465 58.269 C 109.585 58.148,106.496 56.400,106.162 56.400 C 106.073 56.400,106.000 56.486,106.000 56.591 M110.000 58.591 C 110.000 58.837,113.299 60.435,113.465 60.269 C 113.585 60.148,110.496 58.400,110.162 58.400 C 110.073 58.400,110.000 58.486,110.000 58.591 M115.633 61.357 C 116.083 61.781,118.913 63.220,119.042 63.091 C 119.124 63.010,118.455 62.551,117.557 62.072 C 116.070 61.277,115.210 60.958,115.633 61.357 M125.233 66.157 C 125.683 66.581,128.513 68.020,128.642 67.891 C 128.724 67.810,128.055 67.351,127.157 66.872 C 125.670 66.077,124.810 65.758,125.233 66.157 M134.800 70.991 C 134.800 71.237,138.099 72.835,138.265 72.669 C 138.385 72.548,135.296 70.800,134.962 70.800 C 134.873 70.800,134.800 70.886,134.800 70.991 M140.433 73.757 C 140.962 74.255,143.725 75.608,143.886 75.448 C 143.991 75.342,143.306 74.883,142.364 74.428 C 140.739 73.643,140.063 73.408,140.433 73.757 M144.433 75.757 C 144.962 76.255,147.725 77.608,147.886 77.448 C 147.991 77.342,147.306 76.883,146.364 76.428 C 144.739 75.643,144.063 75.408,144.433 75.757 M150.033 78.557 C 150.562 79.055,153.325 80.408,153.486 80.248 C 153.591 80.142,152.906 79.683,151.964 79.228 C 150.339 78.443,149.663 78.208,150.033 78.557 M156.224 81.787 C 156.651 82.110,157.180 82.375,157.400 82.375 C 157.620 82.375,157.451 82.110,157.024 81.787 C 156.596 81.464,156.067 81.200,155.847 81.200 C 155.627 81.200,155.796 81.464,156.224 81.787 M159.633 83.357 C 160.162 83.855,162.925 85.208,163.086 85.048 C 163.191 84.942,162.506 84.483,161.564 84.028 C 159.939 83.243,159.263 83.008,159.633 83.357 M165.824 86.587 C 166.251 86.910,166.780 87.175,167.000 87.175 C 167.220 87.175,167.051 86.910,166.624 86.587 C 166.196 86.264,165.667 86.000,165.447 86.000 C 165.227 86.000,165.396 86.264,165.824 86.587 M169.233 88.157 C 169.762 88.655,172.525 90.008,172.686 89.848 C 172.791 89.742,172.106 89.283,171.164 88.828 C 169.539 88.043,168.863 87.808,169.233 88.157 M175.424 91.387 C 175.851 91.710,176.380 91.975,176.600 91.975 C 176.820 91.975,176.651 91.710,176.224 91.387 C 175.796 91.064,175.267 90.800,175.047 90.800 C 174.827 90.800,174.996 91.064,175.424 91.387 M180.357 93.814 C 181.324 94.367,182.196 94.737,182.296 94.637 C 182.489 94.444,179.450 92.797,178.916 92.805 C 178.742 92.807,179.391 93.262,180.357 93.814 M185.024 96.187 C 185.451 96.510,185.980 96.775,186.200 96.775 C 186.420 96.775,186.251 96.510,185.824 96.187 C 185.396 95.864,184.867 95.600,184.647 95.600 C 184.427 95.600,184.596 95.864,185.024 96.187 M190.624 98.987 C 191.051 99.310,191.580 99.575,191.800 99.575 C 192.020 99.575,191.851 99.310,191.424 98.987 C 190.996 98.664,190.467 98.400,190.247 98.400 C 190.027 98.400,190.196 98.664,190.624 98.987 M194.624 100.987 C 195.051 101.310,195.580 101.575,195.800 101.575 C 196.020 101.575,195.851 101.310,195.424 100.987 C 194.996 100.664,194.467 100.400,194.247 100.400 C 194.027 100.400,194.196 100.664,194.624 100.987 M198.033 102.551 C 198.442 102.921,201.600 104.395,201.600 104.216 C 201.600 103.989,198.581 102.400,198.149 102.400 C 197.994 102.400,197.942 102.468,198.033 102.551 M207.633 107.351 C 208.042 107.721,211.200 109.195,211.200 109.016 C 211.200 108.789,208.181 107.200,207.749 107.200 C 207.594 107.200,207.542 107.268,207.633 107.351 M213.233 110.151 C 213.642 110.521,216.800 111.995,216.800 111.816 C 216.800 111.589,213.781 110.000,213.349 110.000 C 213.194 110.000,213.142 110.068,213.233 110.151 M217.233 112.151 C 217.642 112.521,220.800 113.995,220.800 113.816 C 220.800 113.589,217.781 112.000,217.349 112.000 C 217.194 112.000,217.142 112.068,217.233 112.151 M222.833 114.951 C 223.242 115.321,226.400 116.795,226.400 116.616 C 226.400 116.389,223.381 114.800,222.949 114.800 C 222.794 114.800,222.742 114.868,222.833 114.951 M226.833 116.951 C 227.242 117.321,230.400 118.795,230.400 118.616 C 230.400 118.389,227.381 116.800,226.949 116.800 C 226.794 116.800,226.742 116.868,226.833 116.951 M232.433 119.751 C 232.800 120.083,236.000 121.605,236.000 121.448 C 236.000 121.175,233.196 119.600,232.710 119.600 C 232.466 119.600,232.342 119.668,232.433 119.751 M236.433 121.751 C 236.800 122.083,240.000 123.605,240.000 123.448 C 240.000 123.175,237.196 121.600,236.710 121.600 C 236.466 121.600,236.342 121.668,236.433 121.751 M242.033 124.551 C 242.400 124.883,245.600 126.405,245.600 126.248 C 245.600 125.975,242.796 124.400,242.310 124.400 C 242.066 124.400,241.942 124.468,242.033 124.551 M246.033 126.551 C 246.400 126.883,249.600 128.405,249.600 128.248 C 249.600 127.975,246.796 126.400,246.310 126.400 C 246.066 126.400,245.942 126.468,246.033 126.551 M251.633 129.351 C 252.000 129.683,255.200 131.205,255.200 131.048 C 255.200 130.775,252.396 129.200,251.910 129.200 C 251.666 129.200,251.542 129.268,251.633 129.351 M257.369 132.218 C 258.452 132.755,259.395 133.138,259.464 133.069 C 259.658 132.876,256.386 131.197,255.862 131.221 C 255.608 131.233,256.286 131.681,257.369 132.218 M260.000 133.392 C 260.000 133.670,263.248 135.285,263.434 135.099 C 263.520 135.014,262.855 134.551,261.957 134.072 C 260.253 133.162,260.000 133.074,260.000 133.392 M266.969 137.018 C 268.052 137.555,268.995 137.938,269.064 137.869 C 269.258 137.676,265.986 135.997,265.462 136.021 C 265.208 136.033,265.886 136.481,266.969 137.018 M269.600 138.192 C 269.600 138.470,272.848 140.085,273.034 139.899 C 273.120 139.814,272.455 139.351,271.557 138.872 C 269.853 137.962,269.600 137.874,269.600 138.192 M276.569 141.818 C 277.652 142.355,278.595 142.738,278.664 142.669 C 278.858 142.476,275.586 140.797,275.062 140.821 C 274.808 140.833,275.486 141.281,276.569 141.818 M281.200 144.200 C 282.515 144.952,283.164 144.960,282.176 144.213 C 281.749 143.890,281.130 143.626,280.800 143.627 C 280.452 143.628,280.620 143.868,281.200 144.200 M286.169 146.618 C 287.252 147.155,288.195 147.538,288.264 147.469 C 288.458 147.276,285.186 145.597,284.662 145.621 C 284.408 145.633,285.086 146.081,286.169 146.618 M288.800 147.791 C 288.800 148.037,292.099 149.635,292.265 149.469 C 292.385 149.348,289.296 147.600,288.962 147.600 C 288.873 147.600,288.800 147.686,288.800 147.791 M294.400 150.591 C 294.400 150.837,297.699 152.435,297.865 152.269 C 297.985 152.148,294.896 150.400,294.562 150.400 C 294.473 150.400,294.400 150.486,294.400 150.591 M298.400 152.591 C 298.400 152.837,301.699 154.435,301.865 154.269 C 301.985 154.148,298.896 152.400,298.562 152.400 C 298.473 152.400,298.400 152.486,298.400 152.591 M304.000 155.391 C 304.000 155.637,307.299 157.235,307.465 157.069 C 307.585 156.948,304.496 155.200,304.162 155.200 C 304.073 155.200,304.000 155.286,304.000 155.391 M308.000 157.391 C 308.000 157.637,311.299 159.235,311.465 159.069 C 311.585 158.948,308.496 157.200,308.162 157.200 C 308.073 157.200,308.000 157.286,308.000 157.391 M313.600 160.191 C 313.600 160.477,316.913 162.021,317.108 161.825 C 317.201 161.732,316.506 161.283,315.564 160.828 C 313.724 159.939,313.600 159.899,313.600 160.191 M317.600 162.150 C 317.600 162.459,322.516 164.817,322.725 164.608 C 322.863 164.470,320.838 163.405,317.900 162.070 C 317.735 161.995,317.600 162.031,317.600 162.150 M323.233 164.957 C 323.762 165.455,326.525 166.808,326.686 166.648 C 326.791 166.542,326.106 166.083,325.164 165.628 C 323.539 164.843,322.863 164.608,323.233 164.957 M327.200 166.950 C 327.200 167.259,332.116 169.617,332.325 169.408 C 332.463 169.270,330.438 168.205,327.500 166.870 C 327.335 166.795,327.200 166.831,327.200 166.950 M332.833 169.757 C 333.283 170.181,336.113 171.620,336.242 171.491 C 336.324 171.410,335.655 170.951,334.757 170.472 C 333.270 169.677,332.410 169.358,332.833 169.757 M338.433 172.557 C 338.962 173.055,341.725 174.408,341.886 174.248 C 341.991 174.142,341.306 173.683,340.364 173.228 C 338.739 172.443,338.063 172.208,338.433 172.557 M342.433 174.557 C 342.962 175.055,345.725 176.408,345.886 176.248 C 345.991 176.142,345.306 175.683,344.364 175.228 C 342.739 174.443,342.063 174.208,342.433 174.557 M348.033 177.357 C 348.562 177.855,351.325 179.208,351.486 179.048 C 351.591 178.942,350.906 178.483,349.964 178.028 C 348.339 177.243,347.663 177.008,348.033 177.357 M352.033 179.357 C 352.562 179.855,355.325 181.208,355.486 181.048 C 355.591 180.942,354.906 180.483,353.964 180.028 C 352.339 179.243,351.663 179.008,352.033 179.357 M357.633 182.157 C 358.162 182.655,360.925 184.008,361.086 183.848 C 361.191 183.742,360.506 183.283,359.564 182.828 C 357.939 182.043,357.263 181.808,357.633 182.157 M361.633 184.157 C 362.162 184.655,364.925 186.008,365.086 185.848 C 365.191 185.742,364.506 185.283,363.564 184.828 C 361.939 184.043,361.263 183.808,361.633 184.157 M367.233 186.957 C 367.762 187.455,370.525 188.808,370.686 188.648 C 370.791 188.542,370.106 188.083,369.164 187.628 C 367.539 186.843,366.863 186.608,367.233 186.957 M373.411 190.118 C 374.440 190.794,376.400 191.634,376.400 191.400 C 376.400 191.177,373.356 189.600,372.927 189.600 C 372.759 189.600,372.977 189.833,373.411 190.118 M377.411 192.118 C 378.438 192.793,380.400 193.635,380.400 193.401 C 380.400 193.211,377.211 191.600,376.836 191.600 C 376.718 191.600,376.977 191.833,377.411 192.118 M383.011 194.918 C 384.040 195.594,386.000 196.434,386.000 196.200 C 386.000 195.977,382.956 194.400,382.527 194.400 C 382.359 194.400,382.577 194.633,383.011 194.918 M387.011 196.918 C 388.038 197.593,390.000 198.435,390.000 198.201 C 390.000 198.011,386.811 196.400,386.436 196.400 C 386.318 196.400,386.577 196.633,387.011 196.918 M392.300 199.465 C 393.316 199.875,392.748 200.812,390.900 201.774 C 389.855 202.318,389.144 202.771,389.320 202.781 C 389.796 202.809,392.098 201.593,392.899 200.891 C 393.632 200.248,393.209 199.165,392.251 199.232 C 391.968 199.251,391.986 199.338,392.300 199.465 M385.200 204.600 C 384.210 205.130,383.542 205.572,383.716 205.582 C 384.141 205.606,387.200 204.034,387.200 203.792 C 387.200 203.527,387.217 203.520,385.200 204.600 M381.200 206.600 C 380.210 207.130,379.542 207.572,379.716 207.582 C 380.141 207.606,383.200 206.034,383.200 205.792 C 383.200 205.527,383.217 205.520,381.200 206.600 M375.600 209.400 C 374.610 209.930,373.942 210.372,374.116 210.382 C 374.541 210.406,377.600 208.834,377.600 208.592 C 377.600 208.327,377.617 208.320,375.600 209.400 M370.085 212.071 C 369.142 212.529,368.435 212.969,368.515 213.049 C 368.695 213.228,372.000 211.656,372.000 211.391 C 372.000 211.137,372.046 211.121,370.085 212.071 M366.085 214.071 C 365.142 214.529,364.449 214.982,364.546 215.079 C 364.745 215.279,368.000 213.689,368.000 213.392 C 368.000 213.137,368.047 213.120,366.085 214.071 M360.485 216.871 C 359.542 217.329,358.835 217.769,358.915 217.849 C 359.095 218.028,362.400 216.456,362.400 216.191 C 362.400 215.937,362.446 215.921,360.485 216.871 M356.485 218.871 C 355.542 219.329,354.849 219.782,354.946 219.879 C 355.145 220.079,358.400 218.489,358.400 218.192 C 358.400 217.937,358.447 217.920,356.485 218.871 M350.885 221.671 C 349.942 222.129,349.235 222.569,349.315 222.649 C 349.495 222.828,352.800 221.256,352.800 220.991 C 352.800 220.737,352.846 220.721,350.885 221.671 M346.885 223.671 C 345.942 224.129,345.249 224.582,345.346 224.679 C 345.545 224.879,348.800 223.289,348.800 222.992 C 348.800 222.737,348.847 222.720,346.885 223.671 M341.102 226.504 C 340.279 226.963,339.663 227.396,339.733 227.466 C 339.901 227.634,343.200 226.039,343.200 225.791 C 343.200 225.458,342.642 225.648,341.102 226.504 M335.502 229.304 C 334.679 229.763,334.073 230.206,334.155 230.289 C 334.286 230.420,337.112 228.985,337.567 228.557 C 338.014 228.135,336.836 228.562,335.502 229.304 M331.502 231.304 C 330.679 231.763,330.063 232.196,330.133 232.266 C 330.301 232.434,333.600 230.839,333.600 230.591 C 333.600 230.258,333.042 230.448,331.502 231.304 M325.902 234.104 C 325.079 234.563,324.463 234.996,324.533 235.066 C 324.701 235.234,328.000 233.639,328.000 233.391 C 328.000 233.058,327.442 233.248,325.902 234.104 M321.902 236.104 C 321.079 236.563,320.463 236.996,320.533 237.066 C 320.701 237.234,324.000 235.639,324.000 235.391 C 324.000 235.058,323.442 235.248,321.902 236.104 M316.302 238.904 C 315.479 239.363,314.863 239.796,314.933 239.866 C 315.101 240.034,318.400 238.439,318.400 238.191 C 318.400 237.858,317.842 238.048,316.302 238.904 M312.302 240.904 C 311.479 241.363,310.863 241.796,310.933 241.866 C 311.101 242.034,314.400 240.439,314.400 240.191 C 314.400 239.858,313.842 240.048,312.302 240.904 M306.702 243.704 C 305.879 244.163,305.273 244.606,305.355 244.689 C 305.486 244.820,308.312 243.385,308.767 242.957 C 309.214 242.535,308.036 242.962,306.702 243.704 M302.702 245.704 C 301.879 246.163,301.263 246.596,301.333 246.666 C 301.501 246.834,304.800 245.239,304.800 244.991 C 304.800 244.658,304.242 244.848,302.702 245.704 M297.102 248.504 C 296.279 248.963,295.673 249.406,295.755 249.489 C 295.886 249.620,298.712 248.185,299.167 247.757 C 299.614 247.335,298.436 247.762,297.102 248.504 M293.102 250.504 C 292.279 250.963,291.663 251.396,291.733 251.466 C 291.901 251.634,295.200 250.039,295.200 249.791 C 295.200 249.458,294.642 249.648,293.102 250.504 M287.502 253.304 C 286.679 253.763,286.073 254.206,286.155 254.289 C 286.286 254.420,289.112 252.985,289.567 252.557 C 290.014 252.135,288.836 252.562,287.502 253.304 M282.400 255.833 C 281.842 256.143,281.665 256.385,282.000 256.381 C 282.330 256.378,282.949 256.110,283.376 255.787 C 284.339 255.059,283.745 255.087,282.400 255.833 M277.857 258.067 C 277.008 258.496,276.402 258.935,276.510 259.043 C 276.674 259.207,279.430 257.863,279.967 257.357 C 280.364 256.983,279.280 257.348,277.857 258.067 M272.800 260.633 C 272.242 260.943,272.065 261.185,272.400 261.181 C 272.730 261.178,273.349 260.910,273.776 260.587 C 274.739 259.859,274.145 259.887,272.800 260.633 M268.257 262.867 C 267.408 263.296,266.802 263.735,266.910 263.843 C 267.074 264.007,269.830 262.663,270.367 262.157 C 270.764 261.783,269.680 262.148,268.257 262.867 M263.200 265.433 C 262.642 265.743,262.465 265.985,262.800 265.981 C 263.130 265.978,263.749 265.710,264.176 265.387 C 265.139 264.659,264.545 264.687,263.200 265.433 M258.702 267.704 C 257.879 268.163,257.273 268.606,257.355 268.689 C 257.486 268.820,260.312 267.385,260.767 266.957 C 261.214 266.535,260.036 266.962,258.702 267.704 M253.600 270.233 C 253.042 270.543,252.865 270.785,253.200 270.781 C 253.530 270.778,254.149 270.510,254.576 270.187 C 255.539 269.459,254.945 269.487,253.600 270.233 M248.800 272.619 C 247.810 273.133,247.220 273.563,247.488 273.576 C 247.903 273.597,250.662 272.232,251.167 271.757 C 251.601 271.348,250.424 271.777,248.800 272.619 M244.000 275.033 C 243.442 275.343,243.265 275.585,243.600 275.581 C 243.930 275.578,244.549 275.310,244.976 274.987 C 245.939 274.259,245.345 274.287,244.000 275.033 M238.400 277.800 C 237.820 278.132,237.652 278.372,238.000 278.373 C 238.330 278.374,238.949 278.110,239.376 277.787 C 240.364 277.040,239.715 277.048,238.400 277.800 M234.400 279.833 C 233.842 280.143,233.665 280.385,234.000 280.381 C 234.330 280.378,234.949 280.110,235.376 279.787 C 236.339 279.059,235.745 279.087,234.400 279.833 M228.800 282.600 C 228.220 282.932,228.052 283.172,228.400 283.173 C 228.730 283.174,229.349 282.910,229.776 282.587 C 230.764 281.840,230.115 281.848,228.800 282.600 M225.600 284.200 C 224.610 284.730,224.015 285.172,224.277 285.182 C 224.768 285.201,227.600 283.648,227.600 283.360 C 227.600 283.131,227.583 283.138,225.600 284.200 M220.000 287.000 C 219.010 287.530,218.415 287.972,218.677 287.982 C 219.168 288.001,222.000 286.448,222.000 286.160 C 222.000 285.931,221.983 285.938,220.000 287.000 M216.000 289.000 C 215.010 289.530,214.415 289.972,214.677 289.982 C 215.168 290.001,218.000 288.448,218.000 288.160 C 218.000 287.931,217.983 287.938,216.000 289.000 M210.400 291.800 C 209.410 292.330,208.815 292.772,209.077 292.782 C 209.568 292.801,212.400 291.248,212.400 290.960 C 212.400 290.731,212.383 290.738,210.400 291.800 M206.400 293.800 C 205.410 294.330,204.742 294.772,204.916 294.782 C 205.341 294.806,208.400 293.234,208.400 292.992 C 208.400 292.727,208.417 292.720,206.400 293.800 M200.800 296.600 C 199.810 297.130,199.215 297.572,199.477 297.582 C 199.968 297.601,202.800 296.048,202.800 295.760 C 202.800 295.531,202.783 295.538,200.800 296.600 M196.800 298.600 C 195.810 299.130,195.142 299.572,195.316 299.582 C 195.741 299.606,198.800 298.034,198.800 297.792 C 198.800 297.527,198.817 297.520,196.800 298.600 M191.200 301.400 C 190.210 301.930,189.542 302.372,189.716 302.382 C 190.141 302.406,193.200 300.834,193.200 300.592 C 193.200 300.327,193.217 300.320,191.200 301.400 M187.200 303.400 C 186.210 303.930,185.542 304.372,185.716 304.382 C 186.141 304.406,189.200 302.834,189.200 302.592 C 189.200 302.327,189.217 302.320,187.200 303.400 M181.600 306.200 C 180.610 306.730,179.942 307.172,180.116 307.182 C 180.541 307.206,183.600 305.634,183.600 305.392 C 183.600 305.127,183.617 305.120,181.600 306.200 M177.600 308.200 C 176.610 308.730,175.942 309.172,176.116 309.182 C 176.541 309.206,179.600 307.634,179.600 307.392 C 179.600 307.127,179.617 307.120,177.600 308.200 M172.000 311.000 C 171.010 311.530,170.342 311.972,170.516 311.982 C 170.941 312.006,174.000 310.434,174.000 310.192 C 174.000 309.927,174.017 309.920,172.000 311.000 M167.024 313.413 C 166.596 313.736,166.427 314.000,166.647 314.000 C 166.867 314.000,167.396 313.736,167.824 313.413 C 168.251 313.090,168.420 312.825,168.200 312.825 C 167.980 312.825,167.451 313.090,167.024 313.413 M162.485 315.671 C 161.542 316.129,160.835 316.569,160.915 316.649 C 161.095 316.828,164.400 315.256,164.400 314.991 C 164.400 314.737,164.446 314.721,162.485 315.671 M157.424 318.213 C 156.996 318.536,156.827 318.800,157.047 318.800 C 157.267 318.800,157.796 318.536,158.224 318.213 C 158.651 317.890,158.820 317.625,158.600 317.625 C 158.380 317.625,157.851 317.890,157.424 318.213 M152.885 320.471 C 151.942 320.929,151.235 321.369,151.315 321.449 C 151.495 321.628,154.800 320.056,154.800 319.791 C 154.800 319.537,154.846 319.521,152.885 320.471 M147.824 323.013 C 147.396 323.336,147.227 323.600,147.447 323.600 C 147.667 323.600,148.196 323.336,148.624 323.013 C 149.051 322.690,149.220 322.425,149.000 322.425 C 148.780 322.425,148.251 322.690,147.824 323.013 M143.285 325.271 C 142.342 325.729,141.635 326.169,141.715 326.249 C 141.895 326.428,145.200 324.856,145.200 324.591 C 145.200 324.337,145.246 324.321,143.285 325.271 M137.502 328.104 C 136.679 328.563,136.063 328.996,136.133 329.066 C 136.301 329.234,139.600 327.639,139.600 327.391 C 139.600 327.058,139.042 327.248,137.502 328.104 M133.502 330.104 C 132.679 330.563,132.063 330.996,132.133 331.066 C 132.301 331.234,135.600 329.639,135.600 329.391 C 135.600 329.058,135.042 329.248,133.502 330.104 M127.902 332.904 C 127.079 333.363,126.463 333.796,126.533 333.866 C 126.701 334.034,130.000 332.439,130.000 332.191 C 130.000 331.858,129.442 332.048,127.902 332.904 M123.902 334.904 C 123.079 335.363,122.463 335.796,122.533 335.866 C 122.701 336.034,126.000 334.439,126.000 334.191 C 126.000 333.858,125.442 334.048,123.902 334.904 M118.302 337.704 C 117.479 338.163,116.863 338.596,116.933 338.666 C 117.101 338.834,120.400 337.239,120.400 336.991 C 120.400 336.658,119.842 336.848,118.302 337.704 M114.302 339.704 C 113.479 340.163,112.863 340.596,112.933 340.666 C 113.101 340.834,116.400 339.239,116.400 338.991 C 116.400 338.658,115.842 338.848,114.302 339.704 M108.702 342.504 C 107.879 342.963,107.263 343.396,107.333 343.466 C 107.501 343.634,110.800 342.039,110.800 341.791 C 110.800 341.458,110.242 341.648,108.702 342.504 M103.057 345.267 C 102.208 345.696,101.602 346.135,101.710 346.243 C 101.874 346.407,104.630 345.063,105.167 344.557 C 105.564 344.183,104.480 344.548,103.057 345.267 M99.102 347.304 C 98.279 347.763,97.663 348.196,97.733 348.266 C 97.901 348.434,101.200 346.839,101.200 346.591 C 101.200 346.258,100.642 346.448,99.102 347.304 M93.457 350.067 C 92.608 350.496,92.002 350.935,92.110 351.043 C 92.274 351.207,95.030 349.863,95.567 349.357 C 95.964 348.983,94.880 349.348,93.457 350.067 M89.502 352.104 C 88.679 352.563,88.063 352.996,88.133 353.066 C 88.301 353.234,91.600 351.639,91.600 351.391 C 91.600 351.058,91.042 351.248,89.502 352.104 M83.857 354.867 C 83.008 355.296,82.402 355.735,82.510 355.843 C 82.674 356.007,85.430 354.663,85.967 354.157 C 86.364 353.783,85.280 354.148,83.857 354.867 M79.857 356.867 C 79.008 357.296,78.402 357.735,78.510 357.843 C 78.674 358.007,81.430 356.663,81.967 356.157 C 82.364 355.783,81.280 356.148,79.857 356.867 M74.257 359.667 C 73.408 360.096,72.802 360.535,72.910 360.643 C 73.074 360.807,75.830 359.463,76.367 358.957 C 76.764 358.583,75.680 358.948,74.257 359.667 M69.450 362.058 C 68.158 362.705,67.187 363.320,67.293 363.426 C 67.458 363.591,71.886 361.447,72.362 360.971 C 72.799 360.535,71.594 360.984,69.450 362.058 M64.657 364.467 C 63.808 364.896,63.202 365.335,63.310 365.443 C 63.474 365.607,66.230 364.263,66.767 363.757 C 67.164 363.383,66.080 363.748,64.657 364.467 M59.850 366.858 C 58.558 367.505,57.587 368.120,57.693 368.226 C 57.858 368.391,62.286 366.247,62.762 365.771 C 63.199 365.335,61.994 365.784,59.850 366.858 M55.057 369.267 C 54.208 369.696,53.602 370.135,53.710 370.243 C 53.874 370.407,56.630 369.063,57.167 368.557 C 57.564 368.183,56.480 368.548,55.057 369.267 M49.500 372.027 C 48.675 372.463,48.000 372.901,48.000 373.001 C 48.000 373.235,49.962 372.392,50.989 371.718 C 52.194 370.927,51.190 371.135,49.500 372.027 M45.462 374.047 C 44.616 374.493,44.010 374.944,44.115 375.049 C 44.275 375.209,47.039 373.854,47.567 373.357 C 48.013 372.937,46.834 373.323,45.462 374.047 M39.900 376.827 C 39.075 377.263,38.400 377.701,38.400 377.801 C 38.400 378.035,40.362 377.192,41.389 376.518 C 42.594 375.727,41.590 375.935,39.900 376.827 M35.862 378.847 C 35.016 379.293,34.410 379.744,34.515 379.849 C 34.675 380.009,37.439 378.654,37.967 378.157 C 38.413 377.737,37.234 378.123,35.862 378.847 M30.300 381.627 C 29.475 382.063,28.800 382.501,28.800 382.601 C 28.800 382.835,30.762 381.992,31.789 381.318 C 32.994 380.527,31.990 380.735,30.300 381.627 M26.800 383.400 C 26.220 383.732,26.052 383.972,26.400 383.973 C 26.730 383.974,27.349 383.710,27.776 383.387 C 28.764 382.640,28.115 382.648,26.800 383.400 M22.800 385.400 C 21.370 386.149,20.340 386.770,20.511 386.781 C 20.937 386.807,25.600 384.437,25.600 384.194 C 25.600 383.925,25.694 383.885,22.800 385.400 M18.000 387.800 C 17.010 388.330,16.342 388.772,16.516 388.782 C 16.941 388.806,20.000 387.234,20.000 386.992 C 20.000 386.727,20.017 386.720,18.000 387.800 " stroke="none" fill="#a1a1a1" fill-rule="evenodd"></path><path id="path4" d="" stroke="none" fill="#848484" fill-rule="evenodd"></path></g></svg>