<?xml version="1.0" standalone="no"?>
<!DOCTYPE svg PUBLIC "-//W3C//DTD SVG 20010904//EN"
 "http://www.w3.org/TR/2001/REC-SVG-20010904/DTD/svg10.dtd">
<svg version="1.0" xmlns="http://www.w3.org/2000/svg"
 width="1181.000000pt" height="1181.000000pt" viewBox="0 0 1181.000000 1181.000000"
 preserveAspectRatio="xMidYMid meet">

<g transform="translate(0.000000,1181.000000) scale(0.100000,-0.100000)"
fill="#000000" stroke="none">
<path d="M9240 10338 c-1295 -647 -3066 -1531 -3935 -1964 -869 -433 -2329
-1160 -3243 -1616 -915 -456 -1675 -833 -1689 -839 -21 -8 -23 -12 -13 -24 7
-8 639 -327 1404 -709 1492 -744 8093 -4039 9175 -4580 360 -180 660 -325 668
-322 19 8 20 11209 1 11222 -9 6 -802 -385 -2368 -1168z"/>
</g>
</svg>
