<svg id="svg" version="1.1" xmlns="http://www.w3.org/2000/svg" xmlns:xlink="http://www.w3.org/1999/xlink" width="400" height="400" viewBox="0, 0, 400,400"><g id="svgg"><path id="path0" d="M389.200 12.188 C 387.770 12.917,347.540 32.985,299.800 56.782 C 252.060 80.579,212.714 100.202,212.364 100.388 C 212.014 100.575,209.854 101.658,207.564 102.797 C 205.274 103.935,203.061 105.048,202.647 105.270 C 202.233 105.492,200.073 106.563,197.847 107.652 C 195.621 108.740,193.467 109.816,193.061 110.043 C 192.654 110.270,190.764 111.229,188.861 112.173 C 175.854 118.629,38.040 187.349,37.400 187.698 C 36.960 187.938,34.800 189.024,32.600 190.110 C 30.400 191.196,28.240 192.276,27.800 192.510 C 27.360 192.744,25.200 193.824,23.000 194.910 C 20.800 195.996,18.640 197.076,18.200 197.310 C 17.760 197.544,16.367 198.264,15.104 198.912 C 13.841 199.559,12.907 200.249,13.029 200.446 C 13.150 200.643,58.914 223.587,114.725 251.432 C 170.536 279.277,217.100 302.527,218.200 303.099 C 219.300 303.671,220.470 304.262,220.800 304.412 C 221.130 304.563,222.030 305.013,222.800 305.413 C 223.570 305.814,224.470 306.269,224.800 306.426 C 225.130 306.582,226.390 307.212,227.600 307.825 C 228.810 308.438,230.070 309.062,230.400 309.212 C 230.730 309.363,231.630 309.813,232.400 310.213 C 233.170 310.614,234.070 311.069,234.400 311.226 C 234.730 311.382,235.990 312.012,237.200 312.625 C 238.410 313.238,239.670 313.875,240.000 314.042 C 240.330 314.209,242.580 315.302,245.000 316.472 C 247.420 317.643,249.460 318.735,249.533 318.900 C 249.607 319.065,249.861 319.200,250.099 319.200 C 250.687 319.200,258.966 323.324,259.133 323.700 C 259.207 323.865,259.461 324.000,259.699 324.000 C 260.287 324.000,268.566 328.124,268.733 328.500 C 268.807 328.665,269.061 328.800,269.298 328.800 C 269.536 328.800,297.313 342.570,331.025 359.400 C 364.737 376.230,392.517 390.000,392.760 390.000 C 393.080 390.000,393.200 338.124,393.200 200.400 C 393.200 20.083,393.166 10.802,392.500 10.831 C 392.115 10.848,390.630 11.459,389.200 12.188 " stroke="none" fill="#040404" fill-rule="evenodd"></path><path id="path1" d="M0.000 200.000 L 0.000 400.000 200.000 400.000 L 400.000 400.000 400.000 200.000 L 400.000 0.000 200.000 0.000 L 0.000 0.000 0.000 200.000 M394.000 200.200 C 394.000 365.965,393.925 390.743,393.422 390.936 C 392.908 391.133,390.057 389.949,386.600 388.100 C 385.940 387.748,385.130 387.333,384.800 387.180 C 383.637 386.638,380.699 385.187,379.457 384.540 C 378.766 384.180,377.930 383.763,377.600 383.613 C 377.270 383.464,376.460 383.063,375.800 382.723 C 375.140 382.382,373.816 381.720,372.857 381.249 C 371.899 380.779,370.639 380.140,370.057 379.830 C 369.476 379.519,367.200 378.381,365.000 377.301 C 362.800 376.221,360.640 375.139,360.200 374.896 C 359.760 374.654,331.140 360.391,296.600 343.201 C 262.060 326.011,233.267 311.656,232.617 311.301 C 229.476 309.589,224.550 307.211,224.133 307.206 C 223.877 307.203,223.607 307.065,223.533 306.900 C 223.366 306.524,215.087 302.400,214.499 302.400 C 214.261 302.400,214.007 302.265,213.933 302.100 C 213.740 301.665,211.235 300.400,210.568 300.400 C 210.255 300.400,210.000 300.220,210.000 300.000 C 210.000 299.780,209.726 299.600,209.392 299.600 C 209.058 299.600,208.071 299.150,207.200 298.600 C 206.329 298.050,205.460 297.600,205.269 297.600 C 204.733 297.600,202.444 296.394,202.184 295.975 C 202.057 295.769,201.603 295.600,201.176 295.600 C 200.749 295.600,200.400 295.420,200.400 295.200 C 200.400 294.980,200.126 294.800,199.792 294.800 C 199.458 294.800,198.471 294.350,197.600 293.800 C 196.729 293.250,195.860 292.800,195.669 292.800 C 195.133 292.800,192.844 291.594,192.584 291.175 C 192.457 290.969,192.003 290.800,191.576 290.800 C 191.149 290.800,190.800 290.620,190.800 290.400 C 190.800 290.180,190.526 290.000,190.192 290.000 C 189.858 290.000,188.871 289.550,188.000 289.000 C 187.129 288.450,186.277 288.003,186.108 288.006 C 185.627 288.016,181.416 285.836,181.267 285.500 C 181.193 285.335,180.875 285.200,180.559 285.200 C 180.243 285.200,179.271 284.750,178.400 284.200 C 177.529 283.650,176.677 283.203,176.508 283.206 C 176.027 283.216,171.816 281.036,171.667 280.700 C 171.593 280.535,171.275 280.400,170.959 280.400 C 170.643 280.400,169.671 279.950,168.800 279.400 C 167.929 278.850,167.077 278.403,166.908 278.406 C 166.427 278.416,162.216 276.236,162.067 275.900 C 161.993 275.735,161.675 275.600,161.359 275.600 C 161.043 275.600,160.071 275.150,159.200 274.600 C 158.329 274.050,157.477 273.603,157.308 273.606 C 156.827 273.616,152.616 271.436,152.467 271.100 C 152.393 270.935,152.139 270.800,151.901 270.800 C 151.180 270.800,148.400 269.468,148.400 269.123 C 148.400 268.945,148.175 268.803,147.900 268.806 C 147.277 268.814,143.048 266.709,142.867 266.300 C 142.793 266.135,142.539 266.000,142.301 266.000 C 141.580 266.000,138.800 264.668,138.800 264.323 C 138.800 264.145,138.575 264.003,138.300 264.006 C 137.677 264.014,133.448 261.909,133.267 261.500 C 133.193 261.335,132.939 261.200,132.701 261.200 C 131.980 261.200,129.200 259.868,129.200 259.523 C 129.200 259.345,128.975 259.203,128.700 259.206 C 128.077 259.214,123.848 257.109,123.667 256.700 C 123.593 256.535,123.339 256.400,123.101 256.400 C 122.380 256.400,119.600 255.068,119.600 254.723 C 119.600 254.545,119.375 254.403,119.100 254.406 C 118.477 254.414,114.248 252.309,114.067 251.900 C 113.993 251.735,113.739 251.600,113.501 251.600 C 112.780 251.600,110.000 250.268,110.000 249.923 C 110.000 249.745,109.775 249.603,109.500 249.606 C 108.877 249.614,104.648 247.509,104.467 247.100 C 104.393 246.935,104.139 246.800,103.901 246.800 C 103.180 246.800,100.400 245.468,100.400 245.123 C 100.400 244.945,100.165 244.800,99.877 244.800 C 99.590 244.800,86.045 238.142,69.777 230.003 C 53.510 221.865,40.061 215.205,39.892 215.203 C 39.723 215.202,38.871 214.750,38.000 214.200 C 37.129 213.650,36.157 213.200,35.841 213.200 C 35.525 213.200,35.207 213.065,35.133 212.900 C 35.060 212.735,33.920 212.088,32.600 211.463 C 31.280 210.838,29.840 210.132,29.400 209.895 C 28.258 209.278,21.116 205.746,20.400 205.444 C 17.502 204.220,11.776 200.870,11.678 200.341 C 11.564 199.720,103.724 153.200,105.069 153.200 C 105.324 153.200,105.593 153.065,105.667 152.900 C 105.844 152.500,114.071 148.378,114.667 148.391 C 114.923 148.396,115.193 148.263,115.267 148.097 C 115.412 147.767,129.204 140.797,129.708 140.799 C 129.877 140.799,130.729 140.350,131.600 139.800 C 132.471 139.250,133.443 138.800,133.759 138.800 C 134.075 138.800,134.393 138.665,134.467 138.500 C 134.616 138.164,138.827 135.984,139.308 135.994 C 139.477 135.997,140.329 135.550,141.200 135.000 C 142.071 134.450,143.043 134.000,143.359 134.000 C 143.675 134.000,143.993 133.865,144.067 133.700 C 144.216 133.364,148.427 131.184,148.908 131.194 C 149.077 131.197,149.929 130.750,150.800 130.200 C 151.671 129.650,152.643 129.200,152.959 129.200 C 153.275 129.200,153.593 129.065,153.667 128.900 C 153.740 128.735,154.430 128.299,155.200 127.932 C 158.532 126.341,160.654 125.303,161.400 124.900 C 161.840 124.662,162.830 124.177,163.600 123.823 C 164.370 123.468,165.270 123.012,165.600 122.810 C 165.930 122.608,167.100 122.013,168.200 121.487 C 169.300 120.962,170.560 120.338,171.000 120.100 C 171.440 119.862,172.430 119.377,173.200 119.023 C 173.970 118.668,174.870 118.212,175.200 118.010 C 175.530 117.808,176.700 117.213,177.800 116.687 C 178.900 116.162,180.160 115.534,180.600 115.291 C 183.786 113.533,273.922 68.800,274.279 68.800 C 274.529 68.800,274.793 68.665,274.867 68.500 C 275.041 68.107,283.261 63.995,283.867 63.998 C 284.123 63.999,284.393 63.865,284.467 63.700 C 284.641 63.307,292.861 59.195,293.467 59.198 C 293.723 59.199,293.993 59.065,294.067 58.900 C 294.241 58.507,302.461 54.395,303.067 54.398 C 303.323 54.399,303.593 54.265,303.667 54.100 C 303.855 53.677,306.357 52.400,306.999 52.400 C 307.293 52.400,307.593 52.265,307.667 52.100 C 307.843 51.704,312.068 49.586,312.667 49.594 C 312.923 49.597,313.193 49.465,313.267 49.300 C 313.455 48.877,315.957 47.600,316.599 47.600 C 316.893 47.600,317.193 47.465,317.267 47.300 C 317.443 46.904,321.668 44.786,322.267 44.794 C 322.523 44.797,322.793 44.665,322.867 44.500 C 323.055 44.077,325.557 42.800,326.199 42.800 C 326.493 42.800,326.793 42.665,326.867 42.500 C 327.012 42.173,331.225 40.000,331.714 40.000 C 331.880 40.000,332.729 39.550,333.600 39.000 C 334.471 38.450,335.458 38.000,335.792 38.000 C 336.126 38.000,336.400 37.820,336.400 37.600 C 336.400 37.380,336.674 37.200,337.008 37.200 C 337.342 37.200,338.329 36.750,339.200 36.200 C 340.071 35.650,340.971 35.200,341.200 35.200 C 341.429 35.200,342.329 34.750,343.200 34.200 C 344.071 33.650,345.058 33.200,345.392 33.200 C 345.726 33.200,346.000 33.020,346.000 32.800 C 346.000 32.580,346.274 32.400,346.608 32.400 C 346.942 32.400,347.929 31.950,348.800 31.400 C 349.671 30.850,350.571 30.400,350.800 30.400 C 351.029 30.400,351.929 29.950,352.800 29.400 C 353.671 28.850,354.658 28.400,354.992 28.400 C 355.326 28.400,355.600 28.220,355.600 28.000 C 355.600 27.780,355.874 27.600,356.208 27.600 C 356.542 27.600,357.529 27.150,358.400 26.600 C 359.271 26.050,360.171 25.600,360.400 25.600 C 360.629 25.600,361.529 25.150,362.400 24.600 C 363.271 24.050,364.258 23.600,364.592 23.600 C 364.926 23.600,365.200 23.420,365.200 23.200 C 365.200 22.980,365.474 22.800,365.808 22.800 C 366.142 22.800,367.129 22.350,368.000 21.800 C 368.871 21.250,369.771 20.800,370.000 20.800 C 370.229 20.800,371.129 20.350,372.000 19.800 C 372.871 19.250,373.858 18.800,374.192 18.800 C 374.526 18.800,374.800 18.620,374.800 18.400 C 374.800 18.180,375.074 18.000,375.408 18.000 C 375.742 18.000,376.729 17.550,377.600 17.000 C 378.471 16.450,379.371 16.000,379.600 16.000 C 379.829 16.000,380.729 15.550,381.600 15.000 C 382.471 14.450,383.458 14.000,383.792 14.000 C 384.126 14.000,384.400 13.820,384.400 13.600 C 384.400 13.380,384.634 13.200,384.919 13.200 C 385.205 13.200,387.140 12.328,389.219 11.262 C 391.299 10.196,393.225 9.405,393.500 9.504 C 393.899 9.649,394.000 48.152,394.000 200.200 " stroke="none" fill="#fbfbfb" fill-rule="evenodd"></path><path id="path2" d="M392.139 9.850 C 391.441 10.411,391.447 10.421,392.247 10.036 C 392.713 9.812,393.208 9.742,393.347 9.881 C 393.880 10.413,393.633 390.206,393.100 390.744 C 392.699 391.148,392.739 391.195,393.300 390.981 C 393.965 390.728,394.000 381.274,394.000 200.200 C 394.000 -4.064,394.120 8.255,392.139 9.850 M382.224 14.613 C 381.225 15.368,381.595 15.363,383.054 14.602 C 383.684 14.274,383.930 14.010,383.600 14.015 C 383.270 14.021,382.651 14.290,382.224 14.613 M378.224 16.613 C 377.236 17.360,377.885 17.352,379.200 16.600 C 379.780 16.268,379.948 16.028,379.600 16.027 C 379.270 16.026,378.651 16.290,378.224 16.613 M372.624 19.413 C 371.625 20.168,371.995 20.163,373.454 19.402 C 374.084 19.074,374.330 18.810,374.000 18.815 C 373.670 18.821,373.051 19.090,372.624 19.413 M368.624 21.413 C 367.636 22.160,368.285 22.152,369.600 21.400 C 370.180 21.068,370.348 20.828,370.000 20.827 C 369.670 20.826,369.051 21.090,368.624 21.413 M363.024 24.213 C 362.025 24.968,362.395 24.963,363.854 24.202 C 364.484 23.874,364.730 23.610,364.400 23.615 C 364.070 23.621,363.451 23.890,363.024 24.213 M359.024 26.213 C 358.036 26.960,358.685 26.952,360.000 26.200 C 360.580 25.868,360.748 25.628,360.400 25.627 C 360.070 25.626,359.451 25.890,359.024 26.213 M353.424 29.013 C 352.425 29.768,352.795 29.763,354.254 29.002 C 354.884 28.674,355.130 28.410,354.800 28.415 C 354.470 28.421,353.851 28.690,353.424 29.013 M349.424 31.013 C 348.996 31.336,348.827 31.600,349.047 31.600 C 349.267 31.600,349.796 31.336,350.224 31.013 C 350.651 30.690,350.820 30.425,350.600 30.425 C 350.380 30.425,349.851 30.690,349.424 31.013 M343.824 33.813 C 342.825 34.568,343.195 34.563,344.654 33.802 C 345.284 33.474,345.530 33.210,345.200 33.215 C 344.870 33.221,344.251 33.490,343.824 33.813 M339.824 35.813 C 339.396 36.136,339.227 36.400,339.447 36.400 C 339.667 36.400,340.196 36.136,340.624 35.813 C 341.051 35.490,341.220 35.225,341.000 35.225 C 340.780 35.225,340.251 35.490,339.824 35.813 M334.224 38.613 C 333.225 39.368,333.595 39.363,335.054 38.602 C 335.684 38.274,335.930 38.010,335.600 38.015 C 335.270 38.021,334.651 38.290,334.224 38.613 M330.224 40.613 C 329.796 40.936,329.627 41.200,329.847 41.200 C 330.067 41.200,330.596 40.936,331.024 40.613 C 331.451 40.290,331.620 40.025,331.400 40.025 C 331.180 40.025,330.651 40.290,330.224 40.613 M319.902 45.704 C 319.079 46.163,318.473 46.606,318.555 46.689 C 318.686 46.820,321.512 45.385,321.967 44.957 C 322.414 44.535,321.236 44.962,319.902 45.704 M310.302 50.504 C 309.479 50.963,308.873 51.406,308.955 51.489 C 309.086 51.620,311.912 50.185,312.367 49.757 C 312.814 49.335,311.636 49.762,310.302 50.504 M300.702 55.304 C 299.879 55.763,299.273 56.206,299.355 56.289 C 299.486 56.420,302.312 54.985,302.767 54.557 C 303.214 54.135,302.036 54.562,300.702 55.304 M291.102 60.104 C 290.279 60.563,289.673 61.006,289.755 61.089 C 289.886 61.220,292.712 59.785,293.167 59.357 C 293.614 58.935,292.436 59.362,291.102 60.104 M281.502 64.904 C 280.679 65.363,280.073 65.806,280.155 65.889 C 280.286 66.020,283.112 64.585,283.567 64.157 C 284.014 63.735,282.836 64.162,281.502 64.904 M271.902 69.704 C 271.079 70.163,270.473 70.606,270.555 70.689 C 270.686 70.820,273.512 69.385,273.967 68.957 C 274.414 68.535,273.236 68.962,271.902 69.704 M242.176 84.587 C 241.749 84.910,241.580 85.175,241.800 85.175 C 242.020 85.175,242.549 84.910,242.976 84.587 C 243.404 84.264,243.573 84.000,243.353 84.000 C 243.133 84.000,242.604 84.264,242.176 84.587 M237.462 86.847 C 236.616 87.293,236.006 87.739,236.105 87.838 C 236.204 87.938,237.076 87.567,238.043 87.014 C 240.134 85.819,239.667 85.684,237.462 86.847 M232.576 89.387 C 232.149 89.710,231.980 89.975,232.200 89.975 C 232.420 89.975,232.949 89.710,233.376 89.387 C 233.804 89.064,233.973 88.800,233.753 88.800 C 233.533 88.800,233.004 89.064,232.576 89.387 M227.862 91.647 C 227.016 92.093,226.406 92.539,226.505 92.638 C 226.604 92.738,227.476 92.367,228.443 91.814 C 230.534 90.619,230.067 90.484,227.862 91.647 M222.976 94.187 C 222.549 94.510,222.380 94.775,222.600 94.775 C 222.820 94.775,223.349 94.510,223.776 94.187 C 224.204 93.864,224.373 93.600,224.153 93.600 C 223.933 93.600,223.404 93.864,222.976 94.187 M218.262 96.447 C 217.416 96.893,216.806 97.339,216.905 97.438 C 217.004 97.538,217.876 97.167,218.843 96.614 C 220.934 95.419,220.467 95.284,218.262 96.447 M213.376 98.987 C 212.949 99.310,212.780 99.575,213.000 99.575 C 213.220 99.575,213.749 99.310,214.176 98.987 C 214.604 98.664,214.773 98.400,214.553 98.400 C 214.333 98.400,213.804 98.664,213.376 98.987 M209.200 101.000 C 208.650 101.314,208.380 101.572,208.600 101.572 C 208.820 101.572,209.450 101.314,210.000 101.000 C 210.550 100.686,210.820 100.428,210.600 100.428 C 210.380 100.428,209.750 100.686,209.200 101.000 M199.600 105.800 C 199.050 106.114,198.780 106.372,199.000 106.372 C 199.220 106.372,199.850 106.114,200.400 105.800 C 200.950 105.486,201.220 105.228,201.000 105.228 C 200.780 105.228,200.150 105.486,199.600 105.800 M190.000 110.600 C 189.450 110.914,189.180 111.172,189.400 111.172 C 189.620 111.172,190.250 110.914,190.800 110.600 C 191.350 110.286,191.620 110.028,191.400 110.028 C 191.180 110.028,190.550 110.286,190.000 110.600 M180.224 115.413 C 179.236 116.160,179.885 116.152,181.200 115.400 C 181.780 115.068,181.948 114.828,181.600 114.827 C 181.270 114.826,180.651 115.090,180.224 115.413 M176.131 117.421 C 175.432 117.727,174.757 118.146,174.629 118.353 C 174.501 118.560,175.117 118.381,175.998 117.955 C 176.879 117.530,177.600 117.096,177.600 116.991 C 177.600 116.763,177.701 116.733,176.131 117.421 M170.624 120.213 C 169.636 120.960,170.285 120.952,171.600 120.200 C 172.180 119.868,172.348 119.628,172.000 119.627 C 171.670 119.626,171.051 119.890,170.624 120.213 M166.531 122.221 C 165.832 122.527,165.157 122.946,165.029 123.153 C 164.901 123.360,165.517 123.181,166.398 122.755 C 167.279 122.330,168.000 121.896,168.000 121.791 C 168.000 121.563,168.101 121.533,166.531 122.221 M161.024 125.013 C 160.036 125.760,160.685 125.752,162.000 125.000 C 162.580 124.668,162.748 124.428,162.400 124.427 C 162.070 124.426,161.451 124.690,161.024 125.013 M156.485 127.271 C 155.542 127.729,154.835 128.169,154.915 128.249 C 155.095 128.428,158.400 126.856,158.400 126.591 C 158.400 126.337,158.446 126.321,156.485 127.271 M146.702 132.104 C 145.879 132.563,145.263 132.996,145.333 133.066 C 145.501 133.234,148.800 131.639,148.800 131.391 C 148.800 131.058,148.242 131.248,146.702 132.104 M141.824 134.613 C 141.396 134.936,141.227 135.200,141.447 135.200 C 141.667 135.200,142.196 134.936,142.624 134.613 C 143.051 134.290,143.220 134.025,143.000 134.025 C 142.780 134.025,142.251 134.290,141.824 134.613 M137.102 136.904 C 136.279 137.363,135.663 137.796,135.733 137.866 C 135.901 138.034,139.200 136.439,139.200 136.191 C 139.200 135.858,138.642 136.048,137.102 136.904 M132.224 139.413 C 131.796 139.736,131.627 140.000,131.847 140.000 C 132.067 140.000,132.596 139.736,133.024 139.413 C 133.451 139.090,133.620 138.825,133.400 138.825 C 133.180 138.825,132.651 139.090,132.224 139.413 M127.502 141.704 C 126.679 142.163,126.063 142.596,126.133 142.666 C 126.301 142.834,129.600 141.239,129.600 140.991 C 129.600 140.658,129.042 140.848,127.502 141.704 M121.857 144.467 C 121.008 144.896,120.402 145.335,120.510 145.443 C 120.674 145.607,123.430 144.263,123.967 143.757 C 124.364 143.383,123.280 143.748,121.857 144.467 M117.902 146.504 C 117.079 146.963,116.463 147.396,116.533 147.466 C 116.701 147.634,120.000 146.039,120.000 145.791 C 120.000 145.458,119.442 145.648,117.902 146.504 M112.257 149.267 C 111.408 149.696,110.802 150.135,110.910 150.243 C 111.074 150.407,113.830 149.063,114.367 148.557 C 114.764 148.183,113.680 148.548,112.257 149.267 M102.657 154.067 C 101.808 154.496,101.202 154.935,101.310 155.043 C 101.474 155.207,104.230 153.863,104.767 153.357 C 105.164 152.983,104.080 153.348,102.657 154.067 M93.057 158.867 C 92.208 159.296,91.602 159.735,91.710 159.843 C 91.874 160.007,94.630 158.663,95.167 158.157 C 95.564 157.783,94.480 158.148,93.057 158.867 M83.457 163.667 C 82.608 164.096,82.002 164.535,82.110 164.643 C 82.274 164.807,85.030 163.463,85.567 162.957 C 85.964 162.583,84.880 162.948,83.457 163.667 M73.857 168.467 C 73.008 168.896,72.402 169.335,72.510 169.443 C 72.674 169.607,75.430 168.263,75.967 167.757 C 76.364 167.383,75.280 167.748,73.857 168.467 M63.376 173.787 C 62.949 174.110,62.780 174.375,63.000 174.375 C 63.220 174.375,63.749 174.110,64.176 173.787 C 64.604 173.464,64.773 173.200,64.553 173.200 C 64.333 173.200,63.804 173.464,63.376 173.787 M58.700 176.027 C 57.875 176.463,57.200 176.908,57.200 177.018 C 57.200 177.196,60.359 175.719,60.767 175.351 C 61.227 174.934,60.025 175.328,58.700 176.027 M49.100 180.827 C 48.275 181.263,47.600 181.708,47.600 181.818 C 47.600 181.996,50.759 180.519,51.167 180.151 C 51.627 179.734,50.425 180.128,49.100 180.827 M39.500 185.627 C 38.675 186.063,38.000 186.508,38.000 186.618 C 38.000 186.796,41.159 185.319,41.567 184.951 C 42.027 184.534,40.825 184.928,39.500 185.627 M29.900 190.427 C 29.075 190.863,28.400 191.308,28.400 191.418 C 28.400 191.596,31.559 190.119,31.967 189.751 C 32.427 189.334,31.225 189.728,29.900 190.427 M20.300 195.227 C 19.475 195.663,18.800 196.108,18.800 196.218 C 18.800 196.396,21.959 194.919,22.367 194.551 C 22.827 194.134,21.625 194.528,20.300 195.227 M11.733 199.831 C 11.598 200.182,11.801 200.759,12.190 201.131 C 12.851 201.764,12.860 201.750,12.345 200.888 C 11.878 200.106,11.886 199.921,12.400 199.594 C 12.818 199.328,12.845 199.210,12.487 199.206 C 12.206 199.203,11.866 199.484,11.733 199.831 M19.424 204.987 C 19.851 205.310,20.470 205.574,20.800 205.573 C 21.148 205.572,20.980 205.332,20.400 205.000 C 19.085 204.248,18.436 204.240,19.424 204.987 M29.024 209.787 C 29.451 210.110,30.070 210.374,30.400 210.373 C 30.748 210.372,30.580 210.132,30.000 209.800 C 28.685 209.048,28.036 209.040,29.024 209.787 M38.624 214.587 C 39.051 214.910,39.670 215.174,40.000 215.173 C 40.348 215.172,40.180 214.932,39.600 214.600 C 38.285 213.848,37.636 213.840,38.624 214.587 M65.600 227.797 C 65.600 228.068,68.849 229.684,69.030 229.503 C 69.114 229.419,68.376 228.959,67.391 228.481 C 66.406 228.002,65.600 227.694,65.600 227.797 M71.200 230.591 C 71.200 230.837,74.499 232.435,74.665 232.269 C 74.785 232.148,71.696 230.400,71.362 230.400 C 71.273 230.400,71.200 230.486,71.200 230.591 M75.200 232.599 C 75.200 232.789,78.389 234.400,78.764 234.400 C 79.116 234.400,77.482 233.399,76.300 232.890 C 75.695 232.630,75.200 232.499,75.200 232.599 M80.800 235.391 C 80.800 235.637,84.099 237.235,84.265 237.069 C 84.385 236.948,81.296 235.200,80.962 235.200 C 80.873 235.200,80.800 235.286,80.800 235.391 M84.800 237.399 C 84.800 237.589,87.989 239.200,88.364 239.200 C 88.716 239.200,87.082 238.199,85.900 237.690 C 85.295 237.430,84.800 237.299,84.800 237.399 M90.400 240.191 C 90.400 240.437,93.699 242.035,93.865 241.869 C 93.985 241.748,90.896 240.000,90.562 240.000 C 90.473 240.000,90.400 240.086,90.400 240.191 M94.400 242.199 C 94.400 242.389,97.589 244.000,97.964 244.000 C 98.316 244.000,96.682 242.999,95.500 242.490 C 94.895 242.230,94.400 242.099,94.400 242.199 M100.400 245.137 C 100.400 245.444,103.269 246.864,103.475 246.659 C 103.538 246.595,102.872 246.160,101.995 245.692 C 101.118 245.223,100.400 244.974,100.400 245.137 M110.000 249.937 C 110.000 250.244,112.869 251.664,113.075 251.459 C 113.138 251.395,112.472 250.960,111.595 250.492 C 110.718 250.023,110.000 249.774,110.000 249.937 M119.600 254.737 C 119.600 255.044,122.469 256.464,122.675 256.259 C 122.738 256.195,122.072 255.760,121.195 255.292 C 120.318 254.823,119.600 254.574,119.600 254.737 M124.833 257.357 C 125.283 257.781,128.113 259.220,128.242 259.091 C 128.324 259.010,127.655 258.551,126.757 258.072 C 125.270 257.277,124.410 256.958,124.833 257.357 M129.200 259.537 C 129.200 259.844,132.069 261.264,132.275 261.059 C 132.338 260.995,131.672 260.560,130.795 260.092 C 129.918 259.623,129.200 259.374,129.200 259.537 M134.433 262.157 C 134.883 262.581,137.713 264.020,137.842 263.891 C 137.924 263.810,137.255 263.351,136.357 262.872 C 134.870 262.077,134.010 261.758,134.433 262.157 M138.800 264.337 C 138.800 264.644,141.669 266.064,141.875 265.859 C 141.938 265.795,141.272 265.360,140.395 264.892 C 139.518 264.423,138.800 264.174,138.800 264.337 M144.033 266.957 C 144.483 267.381,147.313 268.820,147.442 268.691 C 147.524 268.610,146.855 268.151,145.957 267.672 C 144.470 266.877,143.610 266.558,144.033 266.957 M148.400 269.137 C 148.400 269.444,151.269 270.864,151.475 270.659 C 151.538 270.595,150.872 270.160,149.995 269.692 C 149.118 269.223,148.400 268.974,148.400 269.137 M153.633 271.757 C 154.162 272.255,156.925 273.608,157.086 273.448 C 157.191 273.342,156.506 272.883,155.564 272.428 C 153.939 271.643,153.263 271.408,153.633 271.757 M163.233 276.557 C 163.762 277.055,166.525 278.408,166.686 278.248 C 166.791 278.142,166.106 277.683,165.164 277.228 C 163.539 276.443,162.863 276.208,163.233 276.557 M172.833 281.357 C 173.362 281.855,176.125 283.208,176.286 283.048 C 176.391 282.942,175.706 282.483,174.764 282.028 C 173.139 281.243,172.463 281.008,172.833 281.357 M182.433 286.157 C 182.962 286.655,185.725 288.008,185.886 287.848 C 185.991 287.742,185.306 287.283,184.364 286.828 C 182.739 286.043,182.063 285.808,182.433 286.157 M188.624 289.387 C 189.051 289.710,189.670 289.974,190.000 289.973 C 190.348 289.972,190.180 289.732,189.600 289.400 C 188.285 288.648,187.636 288.640,188.624 289.387 M192.606 291.210 C 192.892 291.672,195.287 292.846,195.504 292.630 C 195.599 292.534,194.939 292.099,194.037 291.664 C 193.135 291.228,192.491 291.024,192.606 291.210 M198.224 294.187 C 198.651 294.510,199.270 294.774,199.600 294.773 C 199.948 294.772,199.780 294.532,199.200 294.200 C 197.885 293.448,197.236 293.440,198.224 294.187 M202.206 296.010 C 202.492 296.472,204.887 297.646,205.104 297.430 C 205.199 297.334,204.539 296.899,203.637 296.464 C 202.735 296.028,202.091 295.824,202.206 296.010 M207.824 298.987 C 208.251 299.310,208.870 299.574,209.200 299.573 C 209.548 299.572,209.380 299.332,208.800 299.000 C 207.485 298.248,206.836 298.240,207.824 298.987 M217.600 303.800 C 218.150 304.114,218.780 304.372,219.000 304.372 C 219.220 304.372,218.950 304.114,218.400 303.800 C 217.850 303.486,217.220 303.228,217.000 303.228 C 216.780 303.228,217.050 303.486,217.600 303.800 M227.200 308.600 C 227.750 308.914,228.380 309.172,228.600 309.172 C 228.820 309.172,228.550 308.914,228.000 308.600 C 227.450 308.286,226.820 308.028,226.600 308.028 C 226.380 308.028,226.650 308.286,227.200 308.600 M230.800 310.166 C 230.800 310.479,233.713 312.029,234.075 311.908 C 234.281 311.840,233.628 311.385,232.625 310.897 C 231.621 310.409,230.800 310.080,230.800 310.166 M236.800 313.400 C 237.350 313.714,237.980 313.972,238.200 313.972 C 238.420 313.972,238.150 313.714,237.600 313.400 C 237.050 313.086,236.420 312.828,236.200 312.828 C 235.980 312.828,236.250 313.086,236.800 313.400 M244.400 316.997 C 244.400 317.268,247.649 318.884,247.830 318.703 C 247.914 318.619,247.176 318.159,246.191 317.681 C 245.206 317.202,244.400 316.894,244.400 316.997 M254.000 321.797 C 254.000 322.068,257.249 323.684,257.430 323.503 C 257.514 323.419,256.776 322.959,255.791 322.481 C 254.806 322.002,254.000 321.694,254.000 321.797 M263.600 326.597 C 263.600 326.868,266.849 328.484,267.030 328.303 C 267.114 328.219,266.376 327.759,265.391 327.281 C 264.406 326.802,263.600 326.494,263.600 326.597 M275.376 332.613 C 275.804 332.936,276.333 333.200,276.553 333.200 C 276.773 333.200,276.604 332.936,276.176 332.613 C 275.749 332.290,275.220 332.025,275.000 332.025 C 274.780 332.025,274.949 332.290,275.376 332.613 M279.376 334.613 C 279.804 334.936,280.333 335.200,280.553 335.200 C 280.773 335.200,280.604 334.936,280.176 334.613 C 279.749 334.290,279.220 334.025,279.000 334.025 C 278.780 334.025,278.949 334.290,279.376 334.613 M284.976 337.413 C 285.404 337.736,285.933 338.000,286.153 338.000 C 286.373 338.000,286.204 337.736,285.776 337.413 C 285.349 337.090,284.820 336.825,284.600 336.825 C 284.380 336.825,284.549 337.090,284.976 337.413 M288.976 339.413 C 289.404 339.736,289.933 340.000,290.153 340.000 C 290.373 340.000,290.204 339.736,289.776 339.413 C 289.349 339.090,288.820 338.825,288.600 338.825 C 288.380 338.825,288.549 339.090,288.976 339.413 M294.576 342.213 C 295.004 342.536,295.533 342.800,295.753 342.800 C 295.973 342.800,295.804 342.536,295.376 342.213 C 294.949 341.890,294.420 341.625,294.200 341.625 C 293.980 341.625,294.149 341.890,294.576 342.213 M298.000 343.791 C 298.000 344.037,301.299 345.635,301.465 345.469 C 301.585 345.348,298.496 343.600,298.162 343.600 C 298.073 343.600,298.000 343.686,298.000 343.791 M307.600 348.591 C 307.600 348.837,310.899 350.435,311.065 350.269 C 311.185 350.148,308.096 348.400,307.762 348.400 C 307.673 348.400,307.600 348.486,307.600 348.591 M317.200 353.391 C 317.200 353.637,320.499 355.235,320.665 355.069 C 320.785 354.948,317.696 353.200,317.362 353.200 C 317.273 353.200,317.200 353.286,317.200 353.391 M326.800 358.191 C 326.800 358.437,330.099 360.035,330.265 359.869 C 330.385 359.748,327.296 358.000,326.962 358.000 C 326.873 358.000,326.800 358.086,326.800 358.191 M342.033 365.757 C 342.562 366.255,345.325 367.608,345.486 367.448 C 345.591 367.342,344.906 366.883,343.964 366.428 C 342.339 365.643,341.663 365.408,342.033 365.757 M351.633 370.557 C 352.162 371.055,354.925 372.408,355.086 372.248 C 355.191 372.142,354.506 371.683,353.564 371.228 C 351.939 370.443,351.263 370.208,351.633 370.557 M357.824 373.787 C 358.251 374.110,358.780 374.375,359.000 374.375 C 359.220 374.375,359.051 374.110,358.624 373.787 C 358.196 373.464,357.667 373.200,357.447 373.200 C 357.227 373.200,357.396 373.464,357.824 373.787 M361.233 375.357 C 361.762 375.855,364.525 377.208,364.686 377.048 C 364.791 376.942,364.106 376.483,363.164 376.028 C 361.539 375.243,360.863 375.008,361.233 375.357 M367.424 378.587 C 367.851 378.910,368.380 379.175,368.600 379.175 C 368.820 379.175,368.651 378.910,368.224 378.587 C 367.796 378.264,367.267 378.000,367.047 378.000 C 366.827 378.000,366.996 378.264,367.424 378.587 M370.833 380.157 C 371.362 380.655,374.125 382.008,374.286 381.848 C 374.391 381.742,373.706 381.283,372.764 380.828 C 371.139 380.043,370.463 379.808,370.833 380.157 M377.024 383.387 C 377.451 383.710,377.980 383.975,378.200 383.975 C 378.420 383.975,378.251 383.710,377.824 383.387 C 377.396 383.064,376.867 382.800,376.647 382.800 C 376.427 382.800,376.596 383.064,377.024 383.387 M380.433 384.957 C 380.962 385.455,383.725 386.808,383.886 386.648 C 383.991 386.542,383.306 386.083,382.364 385.628 C 380.739 384.843,380.063 384.608,380.433 384.957 M386.624 388.187 C 387.051 388.510,387.670 388.774,388.000 388.773 C 388.348 388.772,388.180 388.532,387.600 388.200 C 386.285 387.448,385.636 387.440,386.624 388.187 " stroke="none" fill="#bcbcbc" fill-rule="evenodd"></path><path id="path3" d="M389.293 11.687 C 387.475 12.585,386.071 13.405,386.175 13.508 C 386.278 13.612,387.646 13.045,389.213 12.248 C 390.781 11.452,392.319 10.800,392.632 10.800 C 393.122 10.800,393.200 36.858,393.200 200.400 C 393.200 338.124,393.080 390.000,392.760 390.000 C 392.517 390.000,364.697 376.210,330.937 359.356 C 297.177 342.502,269.484 328.782,269.399 328.868 C 269.063 329.203,392.431 390.474,393.001 390.255 C 393.617 390.019,393.971 12.232,393.357 10.633 C 393.042 9.812,393.144 9.786,389.293 11.687 M382.884 14.866 C 381.500 15.546,380.435 16.168,380.516 16.249 C 380.702 16.436,385.600 14.079,385.600 13.803 C 385.600 13.523,385.689 13.488,382.884 14.866 M377.902 17.304 C 377.079 17.763,376.476 18.210,376.564 18.297 C 376.751 18.484,380.000 16.872,380.000 16.592 C 380.000 16.257,379.443 16.447,377.902 17.304 M373.284 19.666 C 371.900 20.346,370.835 20.968,370.916 21.049 C 371.102 21.236,376.000 18.879,376.000 18.603 C 376.000 18.323,376.089 18.288,373.284 19.666 M368.302 22.104 C 367.479 22.563,366.876 23.010,366.964 23.097 C 367.151 23.284,370.400 21.672,370.400 21.392 C 370.400 21.057,369.843 21.247,368.302 22.104 M363.684 24.466 C 362.300 25.146,361.235 25.768,361.316 25.849 C 361.502 26.036,366.400 23.679,366.400 23.403 C 366.400 23.123,366.489 23.088,363.684 24.466 M357.863 27.276 C 356.577 27.927,355.602 28.535,355.695 28.628 C 355.895 28.829,360.800 26.499,360.800 26.203 C 360.800 25.862,360.293 26.047,357.863 27.276 M353.102 29.704 C 352.279 30.163,351.663 30.596,351.733 30.666 C 351.901 30.834,355.200 29.239,355.200 28.991 C 355.200 28.658,354.642 28.848,353.102 29.704 M348.263 32.076 C 346.977 32.727,346.002 33.335,346.095 33.428 C 346.295 33.629,351.200 31.299,351.200 31.003 C 351.200 30.662,350.693 30.847,348.263 32.076 M343.502 34.504 C 342.679 34.963,342.063 35.396,342.133 35.466 C 342.301 35.634,345.600 34.039,345.600 33.791 C 345.600 33.458,345.042 33.648,343.502 34.504 M338.663 36.876 C 337.377 37.527,336.402 38.135,336.495 38.228 C 336.695 38.429,341.600 36.099,341.600 35.803 C 341.600 35.462,341.093 35.647,338.663 36.876 M333.902 39.304 C 333.079 39.763,332.463 40.196,332.533 40.266 C 332.701 40.434,336.000 38.839,336.000 38.591 C 336.000 38.258,335.442 38.448,333.902 39.304 M329.063 41.676 C 327.777 42.327,326.802 42.935,326.895 43.028 C 327.095 43.229,332.000 40.899,332.000 40.603 C 332.000 40.262,331.493 40.447,329.063 41.676 M321.472 45.474 C 319.092 46.686,317.214 47.747,317.298 47.831 C 317.474 48.008,326.400 43.637,326.400 43.374 C 326.400 43.022,325.712 43.315,321.472 45.474 M311.872 50.274 C 309.492 51.486,307.614 52.547,307.698 52.631 C 307.874 52.808,316.800 48.437,316.800 48.174 C 316.800 47.822,316.112 48.115,311.872 50.274 M302.272 55.074 C 299.892 56.286,298.014 57.347,298.098 57.431 C 298.274 57.608,307.200 53.237,307.200 52.974 C 307.200 52.622,306.512 52.915,302.272 55.074 M292.672 59.874 C 290.292 61.086,288.419 62.152,288.509 62.243 C 288.663 62.397,297.074 58.260,297.526 57.807 C 298.096 57.237,296.598 57.875,292.672 59.874 M285.050 63.658 C 283.758 64.305,282.787 64.920,282.893 65.026 C 283.058 65.191,287.486 63.047,287.962 62.571 C 288.399 62.135,287.194 62.584,285.050 63.658 M280.257 66.067 C 279.408 66.496,278.802 66.935,278.910 67.043 C 279.074 67.207,281.830 65.863,282.367 65.357 C 282.764 64.983,281.680 65.348,280.257 66.067 M275.450 68.458 C 274.158 69.105,273.187 69.720,273.293 69.826 C 273.458 69.991,277.886 67.847,278.362 67.371 C 278.799 66.935,277.594 67.384,275.450 68.458 M267.900 72.224 C 265.535 73.425,263.600 74.506,263.600 74.627 C 263.600 74.748,263.735 74.775,263.900 74.686 C 264.065 74.597,266.135 73.573,268.500 72.409 C 270.865 71.246,272.800 70.228,272.800 70.147 C 272.800 69.806,271.976 70.155,267.900 72.224 M258.258 77.045 C 255.870 78.257,253.994 79.327,254.089 79.422 C 254.245 79.578,262.690 75.443,263.144 74.989 C 263.723 74.411,262.117 75.086,258.258 77.045 M248.658 81.845 C 246.270 83.057,244.394 84.127,244.489 84.222 C 244.645 84.378,253.090 80.243,253.544 79.789 C 254.123 79.211,252.517 79.886,248.658 81.845 M228.000 92.200 C 219.530 96.466,212.762 99.966,212.961 99.978 C 213.359 100.002,244.000 84.761,244.000 84.538 C 244.000 84.181,242.418 84.938,228.000 92.200 M207.700 102.278 C 205.225 103.519,203.283 104.617,203.385 104.718 C 203.579 104.912,211.531 100.971,212.180 100.359 C 212.835 99.740,212.322 99.960,207.700 102.278 M198.100 107.078 C 195.625 108.319,193.673 109.407,193.762 109.495 C 193.947 109.680,202.003 105.726,202.580 105.168 C 203.224 104.544,202.748 104.747,198.100 107.078 M185.692 113.270 C 181.673 115.276,178.453 116.986,178.537 117.070 C 178.621 117.155,179.930 116.604,181.445 115.848 C 182.960 115.091,186.090 113.541,188.400 112.404 C 192.031 110.616,193.821 109.570,193.180 109.612 C 193.081 109.618,189.711 111.265,185.692 113.270 M173.097 119.507 C 170.730 120.728,168.856 121.790,168.932 121.866 C 169.108 122.041,178.000 117.657,178.000 117.395 C 178.000 117.028,177.394 117.289,173.097 119.507 M163.497 124.307 C 161.130 125.528,159.256 126.590,159.332 126.666 C 159.508 126.841,168.400 122.457,168.400 122.195 C 168.400 121.828,167.794 122.089,163.497 124.307 M156.084 128.066 C 154.700 128.746,153.635 129.368,153.716 129.449 C 153.902 129.636,158.800 127.279,158.800 127.003 C 158.800 126.723,158.889 126.688,156.084 128.066 M148.292 131.897 C 145.923 133.118,144.050 134.183,144.130 134.264 C 144.301 134.435,153.200 130.029,153.200 129.773 C 153.200 129.424,152.514 129.721,148.292 131.897 M138.692 136.697 C 136.323 137.918,134.450 138.983,134.530 139.064 C 134.701 139.235,143.600 134.829,143.600 134.573 C 143.600 134.224,142.914 134.521,138.692 136.697 M85.600 163.213 C 59.310 176.377,37.969 187.159,38.175 187.174 C 38.612 187.204,134.000 139.615,134.000 139.367 C 134.000 138.998,131.681 140.140,85.600 163.213 M32.800 189.600 C 30.270 190.897,28.395 191.968,28.634 191.979 C 29.127 192.003,36.798 188.135,37.380 187.569 C 38.009 186.958,37.590 187.144,32.800 189.600 M23.200 194.400 C 20.670 195.697,18.795 196.768,19.034 196.779 C 19.527 196.803,27.198 192.935,27.780 192.369 C 28.409 191.758,27.990 191.944,23.200 194.400 M15.046 198.452 C 11.057 200.491,10.096 199.701,26.600 207.943 C 34.080 211.679,59.707 224.478,83.550 236.385 C 107.392 248.292,126.975 257.958,127.068 257.865 C 127.161 257.772,101.593 244.901,70.251 229.262 C 38.908 213.623,13.160 200.658,13.032 200.452 C 12.904 200.245,13.982 199.482,15.427 198.756 C 16.872 198.030,18.142 197.293,18.251 197.118 C 18.527 196.671,18.546 196.663,15.046 198.452 M127.600 258.140 C 127.600 258.444,136.494 262.840,136.697 262.636 C 136.793 262.540,134.924 261.503,132.544 260.331 C 127.354 257.775,127.600 257.884,127.600 258.140 M137.200 262.940 C 137.200 263.244,146.094 267.640,146.297 267.436 C 146.393 267.340,144.524 266.303,142.144 265.131 C 136.954 262.575,137.200 262.684,137.200 262.940 M146.800 267.750 C 146.800 268.059,151.716 270.417,151.925 270.208 C 152.063 270.070,150.038 269.005,147.100 267.670 C 146.935 267.595,146.800 267.631,146.800 267.750 M152.400 270.574 C 152.400 270.836,161.325 275.208,161.501 275.032 C 161.634 274.900,152.937 270.400,152.548 270.400 C 152.467 270.400,152.400 270.478,152.400 270.574 M162.074 275.407 C 162.524 275.858,170.936 279.997,171.090 279.844 C 171.179 279.754,169.238 278.672,166.774 277.440 C 162.575 275.340,161.573 274.906,162.074 275.407 M171.674 280.207 C 172.124 280.658,180.536 284.797,180.690 284.644 C 180.779 284.554,178.838 283.472,176.374 282.240 C 172.175 280.140,171.173 279.706,171.674 280.207 M181.200 284.953 C 181.200 285.037,182.235 285.604,183.500 286.212 C 184.765 286.821,185.935 287.393,186.100 287.483 C 186.265 287.573,186.400 287.545,186.400 287.421 C 186.400 287.228,181.702 284.800,181.329 284.800 C 181.258 284.800,181.200 284.869,181.200 284.953 M186.833 287.757 C 187.362 288.255,190.125 289.608,190.286 289.448 C 190.391 289.342,189.706 288.883,188.764 288.428 C 187.139 287.643,186.463 287.408,186.833 287.757 M190.838 289.771 C 191.310 290.243,195.741 292.392,195.905 292.229 C 196.009 292.125,194.961 291.490,193.576 290.820 C 191.197 289.667,190.446 289.380,190.838 289.771 M196.456 292.589 C 196.908 293.042,205.355 297.178,205.510 297.023 C 205.605 296.929,203.656 295.850,201.181 294.626 C 196.980 292.549,195.988 292.121,196.456 292.589 M206.000 297.347 C 206.000 297.428,207.935 298.446,210.300 299.609 C 212.665 300.773,214.735 301.797,214.900 301.886 C 215.065 301.975,215.200 301.949,215.200 301.829 C 215.200 301.639,206.511 297.200,206.140 297.200 C 206.063 297.200,206.000 297.266,206.000 297.347 M215.600 302.153 C 215.600 302.237,216.635 302.804,217.900 303.412 C 219.165 304.021,220.335 304.593,220.500 304.683 C 220.665 304.773,220.800 304.760,220.800 304.654 C 220.800 304.411,216.375 302.000,215.929 302.000 C 215.748 302.000,215.600 302.069,215.600 302.153 M221.811 305.318 C 222.774 305.950,224.800 306.840,224.800 306.631 C 224.800 306.547,224.160 306.101,223.377 305.640 C 221.845 304.736,220.505 304.461,221.811 305.318 M225.200 306.953 C 225.200 307.037,226.235 307.604,227.500 308.212 C 228.765 308.821,229.935 309.393,230.100 309.483 C 230.265 309.573,230.400 309.560,230.400 309.454 C 230.400 309.211,225.975 306.800,225.529 306.800 C 225.348 306.800,225.200 306.869,225.200 306.953 M231.411 310.118 C 232.374 310.750,234.400 311.640,234.400 311.431 C 234.400 311.347,233.760 310.901,232.977 310.440 C 231.445 309.536,230.105 309.261,231.411 310.118 M234.800 311.753 C 234.800 311.837,235.835 312.404,237.100 313.012 C 238.365 313.621,239.535 314.193,239.700 314.283 C 239.865 314.373,240.000 314.360,240.000 314.254 C 240.000 314.011,235.575 311.600,235.129 311.600 C 234.948 311.600,234.800 311.669,234.800 311.753 M241.000 314.890 C 243.113 316.122,249.598 319.141,249.584 318.888 C 249.566 318.576,241.117 314.392,240.546 314.412 C 240.356 314.419,240.560 314.634,241.000 314.890 M254.400 321.579 C 257.980 323.399,260.555 324.429,259.167 323.487 C 258.429 322.986,250.450 319.205,250.165 319.221 C 249.964 319.232,251.870 320.293,254.400 321.579 M264.000 326.379 C 267.580 328.199,270.155 329.229,268.767 328.287 C 268.029 327.786,260.050 324.005,259.765 324.021 C 259.564 324.032,261.470 325.093,264.000 326.379 " stroke="none" fill="#7c7c7c" fill-rule="evenodd"></path><path id="path4" d="" stroke="none" fill="#9e9e9e" fill-rule="evenodd"></path></g></svg>